<svg width="34" height="34" viewBox="0 0 34 34" fill="none" xmlns="http://www.w3.org/2000/svg">
<path d="M16.6667 0C25.8833 0 33.3333 7.45 33.3333 16.6667C33.3333 25.8833 25.8833 33.3333 16.6667 33.3333C7.45 33.3333 0 25.8833 0 16.6667C0 7.45 7.45 0 16.6667 0ZM23.825 9.50833C23.1761 8.8594 22.1239 8.8594 21.475 9.50833L18.788 12.1953C17.6164 13.3669 15.7169 13.3669 14.5453 12.1953L11.8583 9.50833C11.2094 8.8594 10.1573 8.8594 9.50833 9.50833C8.8594 10.1573 8.8594 11.2094 9.50833 11.8583L12.1953 14.5453C13.3669 15.7169 13.3669 17.6164 12.1953 18.788L9.50833 21.475C8.8594 22.1239 8.8594 23.1761 9.50833 23.825C10.1573 24.4739 11.2094 24.4739 11.8583 23.825L14.5453 21.138C15.7169 19.9664 17.6164 19.9664 18.788 21.138L21.475 23.825C22.1239 24.4739 23.1761 24.4739 23.825 23.825C24.4739 23.1761 24.4739 22.1239 23.825 21.475L21.138 18.788C19.9664 17.6164 19.9664 15.7169 21.138 14.5453L23.825 11.8583C24.4739 11.2094 24.4739 10.1573 23.825 9.50833Z" fill="black" fill-opacity="0.3"/>
</svg>
