<svg width="40" height="40" viewBox="0 0 40 40" fill="none" xmlns="http://www.w3.org/2000/svg">
<path d="M19.6667 3C28.8833 3 36.3333 10.45 36.3333 19.6667C36.3333 28.8833 28.8833 36.3333 19.6667 36.3333C10.45 36.3333 3 28.8833 3 19.6667C3 10.45 10.45 3 19.6667 3ZM26.825 12.5083C26.1761 11.8594 25.1239 11.8594 24.475 12.5083L21.788 15.1953C20.6164 16.3669 18.7169 16.3669 17.5453 15.1953L14.8583 12.5083C14.2094 11.8594 13.1573 11.8594 12.5083 12.5083C11.8594 13.1573 11.8594 14.2094 12.5083 14.8583L15.1953 17.5453C16.3669 18.7169 16.3669 20.6164 15.1953 21.788L12.5083 24.475C11.8594 25.1239 11.8594 26.1761 12.5083 26.825C13.1573 27.4739 14.2094 27.4739 14.8583 26.825L17.5453 24.138C18.7169 22.9664 20.6164 22.9664 21.788 24.138L24.475 26.825C25.1239 27.4739 26.1761 27.4739 26.825 26.825C27.4739 26.1761 27.4739 25.1239 26.825 24.475L24.138 21.788C22.9664 20.6164 22.9664 18.7169 24.138 17.5453L26.825 14.8583C27.4739 14.2094 27.4739 13.1573 26.825 12.5083Z" fill="black" fill-opacity="0.3"/>
</svg>
