<svg width="180" height="198" viewBox="0 0 180 198" fill="none" xmlns="http://www.w3.org/2000/svg">
<path d="M103.378 164.494L114.122 175.208L114.888 175.082L103.378 164.494ZM102.592 164.61L113.337 175.323L114.122 175.208L102.592 164.61ZM101.788 164.714L112.533 175.428L113.337 175.323L101.788 164.714ZM100.964 164.807L111.709 175.521L112.533 175.428L100.964 164.807ZM100.12 164.889L110.867 175.603L111.709 175.521L100.12 164.889ZM99.2581 164.961L110.005 175.674L110.867 175.603L99.2581 164.961ZM98.3765 165.021L109.124 175.734L110.005 175.674L98.3765 165.021ZM97.4758 165.07L108.224 175.784L109.124 175.734L97.4758 165.07ZM96.5558 165.109L107.304 175.822L108.224 175.784L96.5558 165.109ZM95.6167 165.136L106.366 175.85L107.304 175.822L95.6167 165.136ZM94.6584 165.152L105.408 175.866L106.366 175.85L94.6584 165.152ZM93.6808 165.158L104.431 175.871L105.408 175.866L93.6808 165.158ZM90.4124 165.094L101.164 175.807L104.431 175.871L90.4124 165.094ZM87.1878 164.9L97.9416 175.614L101.164 175.807L87.1878 164.9ZM84.0071 164.578L94.7628 175.292L97.9416 175.614L84.0071 164.578ZM80.8703 164.127L91.6278 174.841L94.7628 175.292L80.8703 164.127ZM77.7773 163.547L88.5366 174.261L91.6278 174.841L77.7773 163.547ZM74.7282 162.838L85.4893 173.553L88.5366 174.261L74.7282 162.838ZM71.723 162.001L82.4858 172.716L85.4893 173.553L71.723 162.001ZM68.7617 161.034L79.5262 171.75L82.4858 172.716L68.7617 161.034ZM65.8442 159.939L76.6104 170.655L79.5262 171.75L65.8442 159.939ZM62.9706 158.714L73.7385 169.432L76.6104 170.655L62.9706 158.714ZM60.1409 157.361L70.9104 168.079L73.7385 169.432L60.1409 157.361ZM57.355 155.879L68.1261 166.598L70.9104 168.079L57.355 155.879ZM54.6706 154.283L65.4433 165.003L68.1261 166.598L54.6706 154.283ZM52.0794 152.589L62.8536 163.309L65.4433 165.003L52.0794 152.589ZM49.5815 150.795L60.3571 161.517L62.8536 163.309L49.5815 150.795ZM47.1768 148.903L57.9538 159.626L60.3571 161.517L47.1768 148.903ZM44.8653 146.913L55.6436 157.637L57.9538 159.626L44.8653 146.913ZM42.647 144.823L53.4267 155.549L55.6436 157.637L42.647 144.823ZM146.575 43.9909L157.294 54.7748L155.188 52.6031L146.575 43.9909ZM148.586 46.2654L159.305 57.048L157.294 54.7748L148.586 46.2654ZM150.502 48.6414L161.219 59.4225L159.305 57.048L150.502 48.6414ZM152.321 51.1187L163.037 61.8985L161.219 59.4225L152.321 51.1187ZM154.044 53.6976L164.759 64.4758L163.037 61.8985L154.044 53.6976ZM155.672 56.3779L166.386 67.1546L164.759 64.4758L155.672 56.3779ZM157.217 59.1377L167.93 69.9128L166.386 67.1546L157.217 59.1377ZM158.628 61.9551L169.34 72.7285L167.93 69.9128L158.628 61.9551ZM159.904 64.83L170.616 75.6018L169.34 72.7285L159.904 64.83ZM161.046 67.7626L171.757 78.5327L170.616 75.6018L161.046 67.7626ZM162.054 70.7527L172.764 81.5211L171.757 78.5327L162.054 70.7527ZM162.927 73.8004L173.637 84.567L172.764 81.5211L162.927 73.8004ZM163.666 76.9058L174.375 87.6705L173.637 84.567L163.666 76.9058ZM164.271 80.0686L174.98 90.8316L174.375 87.6705L164.271 80.0686ZM164.741 83.2891L175.45 94.0502L174.98 90.8316L164.741 83.2891ZM165.077 86.5671L175.785 97.3263L175.45 94.0502L165.077 86.5671ZM165.278 89.9028L175.987 100.66L175.785 97.3263L165.278 89.9028ZM165.345 93.296L176.054 104.051L175.987 100.66L165.345 93.296ZM165.3 96.075L176.009 106.829L176.054 104.051L165.3 96.075ZM165.164 98.8183L175.873 109.57L176.009 106.829L165.164 98.8183ZM164.938 101.526L175.647 112.277L175.873 109.57L164.938 101.526ZM164.622 104.198L175.33 114.947L175.647 112.277L164.622 104.198ZM164.214 106.835L174.923 117.582L175.33 114.947L164.214 106.835ZM163.717 109.435L174.426 120.181L174.923 117.582L163.717 109.435ZM163.129 112L173.838 122.745L174.426 120.181L163.129 112ZM162.45 114.53L173.16 125.273L173.838 122.745L162.45 114.53ZM161.681 117.024L172.391 127.765L173.16 125.273L161.681 117.024ZM160.821 119.482L171.532 130.222L172.391 127.765L160.821 119.482ZM159.871 121.904L170.583 132.643L171.532 130.222L159.871 121.904ZM158.83 124.291L169.543 135.029L170.583 132.643L158.83 124.291ZM157.71 126.599L168.423 137.335L169.543 135.029L157.71 126.599ZM156.522 128.849L167.235 139.583L168.423 137.335L156.522 128.849ZM155.265 131.041L165.979 141.774L167.235 139.583L155.265 131.041ZM153.939 133.175L164.654 143.908L165.979 141.774L153.939 133.175ZM152.544 135.252L163.26 145.983L164.654 143.908L152.544 135.252ZM151.082 137.272L161.798 148.002L163.26 145.983L151.082 137.272ZM149.55 139.234L160.268 149.962L161.798 148.002L149.55 139.234ZM147.95 141.138L158.669 151.866L160.268 149.962L147.95 141.138ZM146.282 142.985L157.001 153.711L158.669 151.866L146.282 142.985ZM144.545 144.774L155.265 155.499L157.001 153.711L144.545 144.774ZM142.739 146.506L153.461 157.23L155.265 155.499L142.739 146.506ZM140.865 148.18L151.588 158.903L153.461 157.23L140.865 148.18ZM169.294 186.48L180 197.181L151.588 158.903L169.294 186.48ZM117.569 186.48C124.444 193.333 133.756 197.181 143.464 197.181H180L117.569 186.48ZM66.4365 97.8751L77.2023 108.628L77.0543 106.379L66.4365 97.8751ZM66.6832 100.045L77.449 110.797L77.2023 108.628L66.6832 100.045ZM67.0287 102.136L77.7943 112.886L77.449 110.797L67.0287 102.136ZM67.4729 104.147L78.2382 114.896L77.7943 112.886L67.4729 104.147ZM68.0159 106.079L78.7808 116.827L78.2382 114.896L68.0159 106.079ZM68.6575 107.931L79.422 118.678L78.7808 116.827L68.6575 107.931ZM69.3978 109.704L80.1619 120.45L79.422 118.678L69.3978 109.704ZM70.2369 111.397L81.0005 122.142L80.1619 120.45L70.2369 111.397ZM71.1746 113.011L81.9377 123.755L81.0005 122.142L71.1746 113.011ZM72.2111 114.545L82.9736 125.288L81.9377 123.755L72.2111 114.545ZM73.3463 116L84.1081 126.742L82.9736 125.288L73.3463 116ZM74.5733 117.324L85.3344 128.065L84.1081 126.742L74.5733 117.324ZM111.284 67.9984L122.024 78.7683L123.331 80.0056L111.284 67.9984ZM109.894 66.8783L120.635 77.6489L122.024 78.7683L109.894 66.8783ZM108.422 65.8761L119.163 76.6473L120.635 77.6489L108.422 65.8761ZM106.867 64.9918L117.609 75.7635L119.163 76.6473L106.867 64.9918ZM105.23 64.2254L115.973 74.9976L117.609 75.7635L105.23 64.2254ZM103.511 63.577L114.255 74.3495L115.973 74.9976L103.511 63.577ZM101.709 63.0464L112.455 73.8192L114.255 74.3495L101.709 63.0464ZM99.8256 62.6337L110.572 73.4068L112.455 73.8192L99.8256 62.6337ZM97.8596 62.3389L108.607 73.1122L110.572 73.4068L97.8596 62.3389ZM95.8114 62.1621L106.56 72.9354L108.607 73.1122L95.8114 62.1621ZM93.6808 62.1031L104.431 72.8765L106.56 72.9354L93.6808 62.1031ZM91.5188 62.1621L102.27 72.9354L104.431 72.8765L91.5188 62.1621ZM89.4417 62.3389L100.194 73.1122L102.27 72.9354L89.4417 62.3389ZM87.4497 62.6337L98.2033 73.4068L100.194 73.1122L87.4497 62.6337ZM85.5426 63.0464L96.2974 73.8192L98.2033 73.4068L85.5426 63.0464ZM83.7206 63.577L94.4764 74.3495L96.2974 73.8192L83.7206 63.577ZM81.9835 64.2254L92.7404 74.9976L94.4764 74.3495L81.9835 64.2254ZM80.3315 64.9918L91.0893 75.7635L92.7404 74.9976L80.3315 64.9918ZM78.7645 65.8761L89.5231 76.6473L91.0893 75.7635L78.7645 65.8761ZM77.2824 66.8783L88.0419 77.6489L89.5231 76.6473L77.2824 66.8783ZM75.8854 67.9984L86.6457 78.7683L88.0419 77.6489L75.8854 67.9984ZM74.5733 69.2364L85.3344 80.0056L86.6457 78.7683L74.5733 69.2364ZM73.3463 70.5923L84.1081 81.3608L85.3344 80.0056L73.3463 70.5923ZM72.2111 72.0168L82.9736 82.7844L84.1081 81.3608L72.2111 72.0168ZM71.1746 73.5263L81.9377 84.293L82.9736 82.7844L71.1746 73.5263ZM70.2369 75.1207L81.0005 85.8865L81.9377 84.293L70.2369 75.1207ZM69.3978 76.8002L80.1619 87.565L81.0005 85.8865L69.3978 76.8002ZM68.6575 78.5647L79.422 89.3285L80.1619 87.565L68.6575 78.5647ZM68.0159 80.4141L78.7808 91.1768L79.422 89.3285L68.0159 80.4141ZM67.4729 82.3486L78.2382 93.1102L78.7808 91.1768L67.4729 82.3486ZM67.0287 84.3681L77.7943 95.1285L78.2382 93.1102L67.0287 84.3681ZM66.6832 86.4725L77.449 97.2318L77.7943 95.1285L66.6832 86.4725ZM66.4365 88.662L77.2023 99.42L77.449 97.2318L66.4365 88.662ZM66.2884 90.9365L77.0543 101.693L77.2023 99.42L66.2884 90.9365ZM66.239 93.296L77.005 104.051L77.0543 101.693L66.239 93.296ZM66.2884 95.6253L77.0543 106.379L77.005 104.051L66.2884 95.6253ZM104.144 164.368L103.378 164.494L114.888 175.082L104.144 164.368ZM103.378 164.494L102.592 164.61L114.122 175.208L103.378 164.494ZM102.592 164.61L101.788 164.714L113.337 175.323L102.592 164.61ZM101.788 164.714L100.964 164.807L112.533 175.428L101.788 164.714ZM100.964 164.807L100.12 164.889L111.709 175.521L100.964 164.807ZM100.12 164.889L99.2581 164.961L110.867 175.603L100.12 164.889ZM99.2581 164.961L98.3765 165.021L110.005 175.674L99.2581 164.961ZM98.3765 165.021L97.4758 165.07L109.124 175.734L98.3765 165.021ZM97.4758 165.07L96.5558 165.109L108.224 175.784L97.4758 165.07ZM96.5558 165.109L95.6167 165.136L107.304 175.822L96.5558 165.109ZM95.6167 165.136L94.6584 165.152L106.366 175.85L95.6167 165.136ZM94.6584 165.152L93.6808 165.158L105.408 175.866L94.6584 165.152ZM93.6808 165.158L90.4124 165.094L104.431 175.871L93.6808 165.158ZM90.4124 165.094L87.1878 164.9L101.164 175.807L90.4124 165.094ZM87.1878 164.9L84.0071 164.578L97.9416 175.614L87.1878 164.9ZM84.0071 164.578L80.8703 164.127L94.7628 175.292L84.0071 164.578ZM80.8703 164.127L77.7773 163.547L91.6278 174.841L80.8703 164.127ZM77.7773 163.547L74.7282 162.838L88.5366 174.261L77.7773 163.547ZM74.7282 162.838L71.723 162.001L85.4893 173.553L74.7282 162.838ZM71.723 162.001L68.7617 161.034L82.4858 172.716L71.723 162.001ZM68.7617 161.034L65.8442 159.939L79.5262 171.75L68.7617 161.034ZM65.8442 159.939L62.9706 158.714L76.6104 170.655L65.8442 159.939ZM62.9706 158.714L60.1409 157.361L73.7385 169.432L62.9706 158.714ZM60.1409 157.361L57.355 155.879L70.9104 168.079L60.1409 157.361ZM57.355 155.879L54.6706 154.283L68.1261 166.598L57.355 155.879ZM54.6706 154.283L52.0794 152.589L65.4433 165.003L54.6706 154.283ZM52.0794 152.589L49.5815 150.795L62.8536 163.309L52.0794 152.589ZM49.5815 150.795L47.1768 148.903L60.3571 161.517L49.5815 150.795ZM47.1768 148.903L44.8653 146.913L57.9538 159.626L47.1768 148.903ZM44.8653 146.913L42.647 144.823L55.6436 157.637L44.8653 146.913ZM144.468 41.8179L146.575 43.9909L155.188 52.6031L144.468 41.8179ZM146.575 43.9909L148.586 46.2654L157.294 54.7748L146.575 43.9909ZM148.586 46.2654L150.502 48.6414L159.305 57.048L148.586 46.2654ZM150.502 48.6414L152.321 51.1187L161.219 59.4225L150.502 48.6414ZM152.321 51.1187L154.044 53.6976L163.037 61.8985L152.321 51.1187ZM154.044 53.6976L155.672 56.3779L164.759 64.4758L154.044 53.6976ZM155.672 56.3779L157.217 59.1377L166.386 67.1546L155.672 56.3779ZM157.217 59.1377L158.628 61.9551L167.93 69.9128L157.217 59.1377ZM158.628 61.9551L159.904 64.83L169.34 72.7285L158.628 61.9551ZM159.904 64.83L161.046 67.7626L170.616 75.6018L159.904 64.83ZM161.046 67.7626L162.054 70.7527L171.757 78.5327L161.046 67.7626ZM162.054 70.7527L162.927 73.8004L172.764 81.5211L162.054 70.7527ZM162.927 73.8004L163.666 76.9058L173.637 84.567L162.927 73.8004ZM163.666 76.9058L164.271 80.0686L174.375 87.6705L163.666 76.9058ZM164.271 80.0686L164.741 83.2891L174.98 90.8316L164.271 80.0686ZM164.741 83.2891L165.077 86.5671L175.45 94.0502L164.741 83.2891ZM165.077 86.5671L165.278 89.9028L175.785 97.3263L165.077 86.5671ZM165.278 89.9028L165.345 93.296L175.987 100.66L165.278 89.9028ZM165.345 93.296L165.3 96.075L176.054 104.051L165.345 93.296ZM165.3 96.075L165.164 98.8183L176.009 106.829L165.3 96.075ZM165.164 98.8183L164.938 101.526L175.873 109.57L165.164 98.8183ZM164.938 101.526L164.622 104.198L175.647 112.277L164.938 101.526ZM164.622 104.198L164.214 106.835L175.33 114.947L164.622 104.198ZM164.214 106.835L163.717 109.435L174.923 117.582L164.214 106.835ZM163.717 109.435L163.129 112L174.426 120.181L163.717 109.435ZM163.129 112L162.45 114.53L173.838 122.745L163.129 112ZM162.45 114.53L161.681 117.024L173.16 125.273L162.45 114.53ZM161.681 117.024L160.821 119.482L172.391 127.765L161.681 117.024ZM160.821 119.482L159.871 121.904L171.532 130.222L160.821 119.482ZM159.871 121.904L158.83 124.291L170.583 132.643L159.871 121.904ZM158.83 124.291L157.71 126.599L169.543 135.029L158.83 124.291ZM157.71 126.599L156.522 128.849L168.423 137.335L157.71 126.599ZM156.522 128.849L155.265 131.041L167.235 139.583L156.522 128.849ZM155.265 131.041L153.939 133.175L165.979 141.774L155.265 131.041ZM153.939 133.175L152.544 135.252L164.654 143.908L153.939 133.175ZM152.544 135.252L151.082 137.272L163.26 145.983L152.544 135.252ZM151.082 137.272L149.55 139.234L161.798 148.002L151.082 137.272ZM149.55 139.234L147.95 141.138L160.268 149.962L149.55 139.234ZM147.95 141.138L146.282 142.985L158.669 151.866L147.95 141.138ZM146.282 142.985L144.545 144.774L157.001 153.711L146.282 142.985ZM144.545 144.774L142.739 146.506L155.265 155.499L144.545 144.774ZM142.739 146.506L140.865 148.18L153.461 157.23L142.739 146.506ZM140.865 148.18L169.294 186.48L151.588 158.903L140.865 148.18ZM169.294 186.48H117.569L180 197.181L169.294 186.48ZM66.2884 95.6253L66.4365 97.8751L77.0543 106.379L66.2884 95.6253ZM66.4365 97.8751L66.6832 100.045L77.2023 108.628L66.4365 97.8751ZM66.6832 100.045L67.0287 102.136L77.449 110.797L66.6832 100.045ZM67.0287 102.136L67.4729 104.147L77.7943 112.886L67.0287 102.136ZM67.4729 104.147L68.0159 106.079L78.2382 114.896L67.4729 104.147ZM68.0159 106.079L68.6575 107.931L78.7808 116.827L68.0159 106.079ZM68.6575 107.931L69.3978 109.704L79.422 118.678L68.6575 107.931ZM69.3978 109.704L70.2369 111.397L80.1619 120.45L69.3978 109.704ZM70.2369 111.397L71.1746 113.011L81.0005 122.142L70.2369 111.397ZM71.1746 113.011L72.2111 114.545L81.9377 123.755L71.1746 113.011ZM72.2111 114.545L73.3463 116L82.9736 125.288L72.2111 114.545ZM73.3463 116L74.5733 117.324L84.1081 126.742L73.3463 116ZM112.592 69.2364L111.284 67.9984L123.331 80.0056L112.592 69.2364ZM111.284 67.9984L109.894 66.8783L122.024 78.7683L111.284 67.9984ZM109.894 66.8783L108.422 65.8761L120.635 77.6489L109.894 66.8783ZM108.422 65.8761L106.867 64.9918L119.163 76.6473L108.422 65.8761ZM106.867 64.9918L105.23 64.2254L117.609 75.7635L106.867 64.9918ZM105.23 64.2254L103.511 63.577L115.973 74.9976L105.23 64.2254ZM103.511 63.577L101.709 63.0464L114.255 74.3495L103.511 63.577ZM101.709 63.0464L99.8256 62.6337L112.455 73.8192L101.709 63.0464ZM99.8256 62.6337L97.8596 62.3389L110.572 73.4068L99.8256 62.6337ZM97.8596 62.3389L95.8114 62.1621L108.607 73.1122L97.8596 62.3389ZM95.8114 62.1621L93.6808 62.1031L106.56 72.9354L95.8114 62.1621ZM93.6808 62.1031L91.5188 62.1621L104.431 72.8765L93.6808 62.1031ZM91.5188 62.1621L89.4417 62.3389L102.27 72.9354L91.5188 62.1621ZM89.4417 62.3389L87.4497 62.6337L100.194 73.1122L89.4417 62.3389ZM87.4497 62.6337L85.5426 63.0464L98.2033 73.4068L87.4497 62.6337ZM85.5426 63.0464L83.7206 63.577L96.2974 73.8192L85.5426 63.0464ZM83.7206 63.577L81.9835 64.2254L94.4764 74.3495L83.7206 63.577ZM81.9835 64.2254L80.3315 64.9918L92.7404 74.9976L81.9835 64.2254ZM80.3315 64.9918L78.7645 65.8761L91.0893 75.7635L80.3315 64.9918ZM78.7645 65.8761L77.2824 66.8783L89.5231 76.6473L78.7645 65.8761ZM77.2824 66.8783L75.8854 67.9984L88.0419 77.6489L77.2824 66.8783ZM75.8854 67.9984L74.5733 69.2364L86.6457 78.7683L75.8854 67.9984ZM74.5733 69.2364L73.3463 70.5923L85.3344 80.0056L74.5733 69.2364ZM73.3463 70.5923L72.2111 72.0168L84.1081 81.3608L73.3463 70.5923ZM72.2111 72.0168L71.1746 73.5263L82.9736 82.7844L72.2111 72.0168ZM71.1746 73.5263L70.2369 75.1207L81.9377 84.293L71.1746 73.5263ZM70.2369 75.1207L69.3978 76.8002L81.0005 85.8865L70.2369 75.1207ZM69.3978 76.8002L68.6575 78.5647L80.1619 87.565L69.3978 76.8002ZM68.6575 78.5647L68.0159 80.4141L79.422 89.3285L68.6575 78.5647ZM68.0159 80.4141L67.4729 82.3486L78.7808 91.1768L68.0159 80.4141ZM67.4729 82.3486L67.0287 84.3681L78.2382 93.1102L67.4729 82.3486ZM67.0287 84.3681L66.6832 86.4725L77.7943 95.1285L67.0287 84.3681ZM66.6832 86.4725L66.4365 88.662L77.449 97.2318L66.6832 86.4725ZM66.4365 88.662L66.2884 90.9365L77.2023 99.42L66.4365 88.662ZM66.2884 90.9365L66.239 93.296L77.0543 101.693L66.2884 90.9365ZM66.239 93.296L66.2884 95.6253L77.005 104.051L66.239 93.296ZM92.621 153.768L103.378 164.494L104.144 164.368L92.621 153.768ZM91.835 153.883L102.592 164.61L103.378 164.494L91.835 153.883ZM91.0297 153.988L101.788 164.714L102.592 164.61L91.0297 153.988ZM90.2053 154.081L100.964 164.807L101.788 164.714L90.2053 154.081ZM89.3616 154.163L100.12 164.889L100.964 164.807L89.3616 154.163ZM88.4988 154.234L99.2581 164.961L100.12 164.889L88.4988 154.234ZM87.6167 154.295L98.3765 165.021L99.2581 164.961L87.6167 154.295ZM86.7154 154.344L97.4758 165.07L98.3765 165.021L86.7154 154.344ZM85.795 154.383L96.5558 165.109L97.4758 165.07L85.795 154.383ZM84.8553 154.41L95.6167 165.136L96.5558 165.109L84.8553 154.41ZM83.8964 154.426L94.6584 165.152L95.6167 165.136L83.8964 154.426ZM82.9183 154.432L93.6808 165.158L94.6584 165.152L82.9183 154.432ZM79.648 154.368L90.4124 165.094L93.6808 165.158L79.648 154.368ZM76.4215 154.174L87.1878 164.9L90.4124 165.094L76.4215 154.174ZM73.239 153.852L84.0071 164.578L87.1878 164.9L73.239 153.852ZM70.1003 153.4L80.8703 164.127L84.0071 164.578L70.1003 153.4ZM67.0055 152.82L77.7773 163.547L80.8703 164.127L67.0055 152.82ZM63.9547 152.111L74.7282 162.838L77.7773 163.547L63.9547 152.111ZM60.9477 151.273L71.723 162.001L74.7282 162.838L60.9477 151.273ZM57.9847 150.306L68.7617 161.034L71.723 162.001L57.9847 150.306ZM55.0655 149.21L65.8442 159.939L68.7617 161.034L55.0655 149.21ZM52.1902 147.985L62.9706 158.714L65.8442 159.939L52.1902 147.985ZM49.3588 146.631L60.1409 157.361L62.9706 158.714L49.3588 146.631ZM46.5714 145.148L57.355 155.879L60.1409 157.361L46.5714 145.148ZM43.8854 143.551L54.6706 154.283L57.355 155.879L43.8854 143.551ZM41.2927 141.855L52.0794 152.589L54.6706 154.283L41.2927 141.855ZM38.7933 140.061L49.5815 150.795L52.0794 152.589L38.7933 140.061ZM36.3872 138.168L47.1768 148.903L49.5815 150.795L36.3872 138.168ZM34.0743 136.176L44.8653 146.913L47.1768 148.903L34.0743 136.176ZM31.8548 134.086L42.647 144.823L44.8653 146.913L31.8548 134.086ZM135.843 33.1945L146.575 43.9909L144.468 41.8179L135.843 33.1945ZM137.856 35.4703L148.586 46.2654L146.575 43.9909L137.856 35.4703ZM139.772 37.8476L150.502 48.6414L148.586 46.2654L139.772 37.8476ZM141.593 40.3265L152.321 51.1187L150.502 48.6414L141.593 40.3265ZM143.317 42.9068L154.044 53.6976L152.321 51.1187L143.317 42.9068ZM144.945 45.5887L155.672 56.3779L154.044 53.6976L144.945 45.5887ZM146.491 48.3501L157.217 59.1377L155.672 56.3779L146.491 48.3501ZM147.903 51.1691L158.628 61.9551L157.217 59.1377L147.903 51.1691ZM149.18 54.0457L159.904 64.83L158.628 61.9551L149.18 54.0457ZM150.323 56.98L161.046 67.7626L159.904 64.83L150.323 56.98ZM151.331 59.9719L162.054 70.7527L161.046 67.7626L151.331 59.9719ZM152.205 63.0214L162.927 73.8004L162.054 70.7527L152.205 63.0214ZM152.944 66.1285L163.666 76.9058L162.927 73.8004L152.944 66.1285ZM153.549 69.2932L164.271 80.0686L163.666 76.9058L153.549 69.2932ZM154.02 72.5155L164.741 83.2891L164.271 80.0686L154.02 72.5155ZM154.356 75.7955L165.077 86.5671L164.741 83.2891L154.356 75.7955ZM154.557 79.133L165.278 89.9028L165.077 86.5671L154.557 79.133ZM154.625 82.5282L165.345 93.296L165.278 89.9028L154.625 82.5282ZM154.579 85.3088L165.3 96.075L165.345 93.296L154.579 85.3088ZM154.443 88.0538L165.164 98.8183L165.3 96.075L154.443 88.0538ZM154.217 90.7631L164.938 101.526L165.164 98.8183L154.217 90.7631ZM153.9 93.4367L164.622 104.198L164.938 101.526L153.9 93.4367ZM153.493 96.0747L164.214 106.835L164.622 104.198L153.493 96.0747ZM152.995 98.6769L163.717 109.435L164.214 106.835L152.995 98.6769ZM152.406 101.244L163.129 112L163.717 109.435L152.406 101.244ZM151.727 103.775L162.45 114.53L163.129 112L151.727 103.775ZM150.958 106.27L161.681 117.024L162.45 114.53L150.958 106.27ZM150.098 108.729L160.821 119.482L161.681 117.024L150.098 108.729ZM149.147 111.153L159.871 121.904L160.821 119.482L149.147 111.153ZM148.106 113.542L158.83 124.291L159.871 121.904L148.106 113.542ZM146.985 115.85L157.71 126.599L158.83 124.291L146.985 115.85ZM145.796 118.101L156.522 128.849L157.71 126.599L145.796 118.101ZM144.538 120.295L155.265 131.041L156.522 128.849L144.538 120.295ZM143.211 122.431L153.939 133.175L155.265 131.041L143.211 122.431ZM141.816 124.509L152.544 135.252L153.939 133.175L141.816 124.509ZM140.352 126.53L151.082 137.272L152.544 135.252L140.352 126.53ZM138.82 128.493L149.55 139.234L151.082 137.272L138.82 128.493ZM137.219 130.398L147.95 141.138L149.55 139.234L137.219 130.398ZM135.55 132.246L146.282 142.985L147.95 141.138L135.55 132.246ZM133.812 134.036L144.545 144.774L146.282 142.985L133.812 134.036ZM132.005 135.769L142.739 146.506L144.545 144.774L132.005 135.769ZM130.13 137.444L140.865 148.18L142.739 146.506L130.13 137.444ZM158.575 175.766L169.294 186.48L140.865 148.18L158.575 175.766ZM106.82 175.766L117.569 186.48H169.294L106.82 175.766ZM55.6581 87.11L66.4365 97.8751L66.2884 95.6253L55.6581 87.11ZM55.905 89.2816L66.6832 100.045L66.4365 97.8751L55.905 89.2816ZM56.2507 91.3735L67.0287 102.136L66.6832 100.045L56.2507 91.3735ZM56.6952 93.3859L67.4729 104.147L67.0287 102.136L56.6952 93.3859ZM57.2384 95.3188L68.0159 106.079L67.4729 104.147L57.2384 95.3188ZM57.8804 97.1721L68.6575 107.931L68.0159 106.079L57.8804 97.1721ZM58.6212 98.9458L69.3978 109.704L68.6575 107.931L58.6212 98.9458ZM59.4607 100.64L70.2369 111.397L69.3978 109.704L59.4607 100.64ZM60.399 102.255L71.1746 113.011L70.2369 111.397L60.399 102.255ZM61.4361 103.79L72.2111 114.545L71.1746 113.011L61.4361 103.79ZM62.5719 105.245L73.3463 116L72.2111 114.545L62.5719 105.245ZM63.7997 106.57L74.5733 117.324L73.3463 116L63.7997 106.57ZM100.532 57.2159L111.284 67.9984L112.592 69.2364L100.532 57.2159ZM99.1411 56.0952L109.894 66.8783L111.284 67.9984L99.1411 56.0952ZM97.6678 55.0924L108.422 65.8761L109.894 66.8783L97.6678 55.0924ZM96.1122 54.2076L106.867 64.9918L108.422 65.8761L96.1122 54.2076ZM94.4743 53.4408L105.23 64.2254L106.867 64.9918L94.4743 53.4408ZM92.7541 52.7919L103.511 63.577L105.23 64.2254L92.7541 52.7919ZM90.9515 52.261L101.709 63.0464L103.511 63.577L90.9515 52.261ZM89.0667 51.8481L99.8256 62.6337L101.709 63.0464L89.0667 51.8481ZM87.0995 51.5532L97.8596 62.3389L99.8256 62.6337L87.0995 51.5532ZM85.0501 51.3762L95.8114 62.1621L97.8596 62.3389L85.0501 51.3762ZM82.9183 51.3172L93.6808 62.1031L95.8114 62.1621L82.9183 51.3172ZM80.755 51.3762L91.5188 62.1621L93.6808 62.1031L80.755 51.3762ZM78.6768 51.5532L89.4417 62.3389L91.5188 62.1621L78.6768 51.5532ZM76.6835 51.8481L87.4497 62.6337L89.4417 62.3389L76.6835 51.8481ZM74.7754 52.261L85.5426 63.0464L87.4497 62.6337L74.7754 52.261ZM72.9523 52.7919L83.7206 63.577L85.5426 63.0464L72.9523 52.7919ZM71.2142 53.4408L81.9835 64.2254L83.7206 63.577L71.2142 53.4408ZM69.5612 54.2076L80.3315 64.9918L81.9835 64.2254L69.5612 54.2076ZM67.9932 55.0924L78.7645 65.8761L80.3315 64.9918L67.9932 55.0924ZM66.5103 56.0952L77.2824 66.8783L78.7645 65.8761L66.5103 56.0952ZM65.1125 57.2159L75.8854 67.9984L77.2824 66.8783L65.1125 57.2159ZM63.7997 58.4547L74.5733 69.2364L75.8854 67.9984L63.7997 58.4547ZM62.5719 59.8114L73.3463 70.5923L74.5733 69.2364L62.5719 59.8114ZM61.4361 61.2367L72.2111 72.0168L73.3463 70.5923L61.4361 61.2367ZM60.399 62.747L71.1746 73.5263L72.2111 72.0168L60.399 62.747ZM59.4607 64.3424L70.2369 75.1207L71.1746 73.5263L59.4607 64.3424ZM58.6212 66.0228L69.3978 76.8002L70.2369 75.1207L58.6212 66.0228ZM57.8804 67.7883L68.6575 78.5647L69.3978 76.8002L57.8804 67.7883ZM57.2384 69.6389L68.0159 80.4141L68.6575 78.5647L57.2384 69.6389ZM56.6952 71.5745L67.4729 82.3486L68.0159 80.4141L56.6952 71.5745ZM56.2507 73.5951L67.0287 84.3681L67.4729 82.3486L56.2507 73.5951ZM55.905 75.7008L66.6832 86.4725L67.0287 84.3681L55.905 75.7008ZM55.6581 77.8916L66.4365 88.662L66.6832 86.4725L55.6581 77.8916ZM55.5099 80.1674L66.2884 90.9365L66.4365 88.662L55.5099 80.1674ZM55.4606 82.5282L66.239 93.296L66.2884 90.9365L55.4606 82.5282ZM55.5099 84.8589L66.2884 95.6253L66.239 93.296L55.5099 84.8589ZM93.3878 153.642L92.621 153.768L104.144 164.368L93.3878 153.642ZM92.621 153.768L91.835 153.883L103.378 164.494L92.621 153.768ZM91.835 153.883L91.0297 153.988L102.592 164.61L91.835 153.883ZM91.0297 153.988L90.2053 154.081L101.788 164.714L91.0297 153.988ZM90.2053 154.081L89.3616 154.163L100.964 164.807L90.2053 154.081ZM89.3616 154.163L88.4988 154.234L100.12 164.889L89.3616 154.163ZM88.4988 154.234L87.6167 154.295L99.2581 164.961L88.4988 154.234ZM87.6167 154.295L86.7154 154.344L98.3765 165.021L87.6167 154.295ZM86.7154 154.344L85.795 154.383L97.4758 165.07L86.7154 154.344ZM85.795 154.383L84.8553 154.41L96.5558 165.109L85.795 154.383ZM84.8553 154.41L83.8964 154.426L95.6167 165.136L84.8553 154.41ZM83.8964 154.426L82.9183 154.432L94.6584 165.152L83.8964 154.426ZM82.9183 154.432L79.648 154.368L93.6808 165.158L82.9183 154.432ZM79.648 154.368L76.4215 154.174L90.4124 165.094L79.648 154.368ZM76.4215 154.174L73.239 153.852L87.1878 164.9L76.4215 154.174ZM73.239 153.852L70.1003 153.4L84.0071 164.578L73.239 153.852ZM70.1003 153.4L67.0055 152.82L80.8703 164.127L70.1003 153.4ZM67.0055 152.82L63.9547 152.111L77.7773 163.547L67.0055 152.82ZM63.9547 152.111L60.9477 151.273L74.7282 162.838L63.9547 152.111ZM60.9477 151.273L57.9847 150.306L71.723 162.001L60.9477 151.273ZM57.9847 150.306L55.0655 149.21L68.7617 161.034L57.9847 150.306ZM55.0655 149.21L52.1902 147.985L65.8442 159.939L55.0655 149.21ZM52.1902 147.985L49.3588 146.631L62.9706 158.714L52.1902 147.985ZM49.3588 146.631L46.5714 145.148L60.1409 157.361L49.3588 146.631ZM46.5714 145.148L43.8854 143.551L57.355 155.879L46.5714 145.148ZM43.8854 143.551L41.2927 141.855L54.6706 154.283L43.8854 143.551ZM41.2927 141.855L38.7933 140.061L52.0794 152.589L41.2927 141.855ZM38.7933 140.061L36.3872 138.168L49.5815 150.795L38.7933 140.061ZM36.3872 138.168L34.0743 136.176L47.1768 148.903L36.3872 138.168ZM34.0743 136.176L31.8548 134.086L44.8653 146.913L34.0743 136.176ZM133.735 31.0202L135.843 33.1945L144.468 41.8179L133.735 31.0202ZM135.843 33.1945L137.856 35.4703L146.575 43.9909L135.843 33.1945ZM137.856 35.4703L139.772 37.8476L148.586 46.2654L137.856 35.4703ZM139.772 37.8476L141.593 40.3265L150.502 48.6414L139.772 37.8476ZM141.593 40.3265L143.317 42.9068L152.321 51.1187L141.593 40.3265ZM143.317 42.9068L144.945 45.5887L154.044 53.6976L143.317 42.9068ZM144.945 45.5887L146.491 48.3501L155.672 56.3779L144.945 45.5887ZM146.491 48.3501L147.903 51.1691L157.217 59.1377L146.491 48.3501ZM147.903 51.1691L149.18 54.0457L158.628 61.9551L147.903 51.1691ZM149.18 54.0457L150.323 56.98L159.904 64.83L149.18 54.0457ZM150.323 56.98L151.331 59.9719L161.046 67.7626L150.323 56.98ZM151.331 59.9719L152.205 63.0214L162.054 70.7527L151.331 59.9719ZM152.205 63.0214L152.944 66.1285L162.927 73.8004L152.205 63.0214ZM152.944 66.1285L153.549 69.2932L163.666 76.9058L152.944 66.1285ZM153.549 69.2932L154.02 72.5155L164.271 80.0686L153.549 69.2932ZM154.02 72.5155L154.356 75.7955L164.741 83.2891L154.02 72.5155ZM154.356 75.7955L154.557 79.133L165.077 86.5671L154.356 75.7955ZM154.557 79.133L154.625 82.5282L165.278 89.9028L154.557 79.133ZM154.625 82.5282L154.579 85.3088L165.345 93.296L154.625 82.5282ZM154.579 85.3088L154.443 88.0538L165.3 96.075L154.579 85.3088ZM154.443 88.0538L154.217 90.7631L165.164 98.8183L154.443 88.0538ZM154.217 90.7631L153.9 93.4367L164.938 101.526L154.217 90.7631ZM153.9 93.4367L153.493 96.0747L164.622 104.198L153.9 93.4367ZM153.493 96.0747L152.995 98.6769L164.214 106.835L153.493 96.0747ZM152.995 98.6769L152.406 101.244L163.717 109.435L152.995 98.6769ZM152.406 101.244L151.727 103.775L163.129 112L152.406 101.244ZM151.727 103.775L150.958 106.27L162.45 114.53L151.727 103.775ZM150.958 106.27L150.098 108.729L161.681 117.024L150.958 106.27ZM150.098 108.729L149.147 111.153L160.821 119.482L150.098 108.729ZM149.147 111.153L148.106 113.542L159.871 121.904L149.147 111.153ZM148.106 113.542L146.985 115.85L158.83 124.291L148.106 113.542ZM146.985 115.85L145.796 118.101L157.71 126.599L146.985 115.85ZM145.796 118.101L144.538 120.295L156.522 128.849L145.796 118.101ZM144.538 120.295L143.211 122.431L155.265 131.041L144.538 120.295ZM143.211 122.431L141.816 124.509L153.939 133.175L143.211 122.431ZM141.816 124.509L140.352 126.53L152.544 135.252L141.816 124.509ZM140.352 126.53L138.82 128.493L151.082 137.272L140.352 126.53ZM138.82 128.493L137.219 130.398L149.55 139.234L138.82 128.493ZM137.219 130.398L135.55 132.246L147.95 141.138L137.219 130.398ZM135.55 132.246L133.812 134.036L146.282 142.985L135.55 132.246ZM133.812 134.036L132.005 135.769L144.545 144.774L133.812 134.036ZM132.005 135.769L130.13 137.444L142.739 146.506L132.005 135.769ZM130.13 137.444L158.575 175.766L140.865 148.18L130.13 137.444ZM158.575 175.766H106.82L169.294 186.48L158.575 175.766ZM55.5099 84.8589L55.6581 87.11L66.2884 95.6253L55.5099 84.8589ZM55.6581 87.11L55.905 89.2816L66.4365 97.8751L55.6581 87.11ZM55.905 89.2816L56.2507 91.3735L66.6832 100.045L55.905 89.2816ZM56.2507 91.3735L56.6952 93.3859L67.0287 102.136L56.2507 91.3735ZM56.6952 93.3859L57.2384 95.3188L67.4729 104.147L56.6952 93.3859ZM57.2384 95.3188L57.8804 97.1721L68.0159 106.079L57.2384 95.3188ZM57.8804 97.1721L58.6212 98.9458L68.6575 107.931L57.8804 97.1721ZM58.6212 98.9458L59.4607 100.64L69.3978 109.704L58.6212 98.9458ZM59.4607 100.64L60.399 102.255L70.2369 111.397L59.4607 100.64ZM60.399 102.255L61.4361 103.79L71.1746 113.011L60.399 102.255ZM61.4361 103.79L62.5719 105.245L72.2111 114.545L61.4361 103.79ZM62.5719 105.245L63.7997 106.57L73.3463 116L62.5719 105.245ZM101.841 58.4547L100.532 57.2159L112.592 69.2364L101.841 58.4547ZM100.532 57.2159L99.1411 56.0952L111.284 67.9984L100.532 57.2159ZM99.1411 56.0952L97.6678 55.0924L109.894 66.8783L99.1411 56.0952ZM97.6678 55.0924L96.1122 54.2076L108.422 65.8761L97.6678 55.0924ZM96.1122 54.2076L94.4743 53.4408L106.867 64.9918L96.1122 54.2076ZM94.4743 53.4408L92.7541 52.7919L105.23 64.2254L94.4743 53.4408ZM92.7541 52.7919L90.9515 52.261L103.511 63.577L92.7541 52.7919ZM90.9515 52.261L89.0667 51.8481L101.709 63.0464L90.9515 52.261ZM89.0667 51.8481L87.0995 51.5532L99.8256 62.6337L89.0667 51.8481ZM87.0995 51.5532L85.0501 51.3762L97.8596 62.3389L87.0995 51.5532ZM85.0501 51.3762L82.9183 51.3172L95.8114 62.1621L85.0501 51.3762ZM82.9183 51.3172L80.755 51.3762L93.6808 62.1031L82.9183 51.3172ZM80.755 51.3762L78.6768 51.5532L91.5188 62.1621L80.755 51.3762ZM78.6768 51.5532L76.6835 51.8481L89.4417 62.3389L78.6768 51.5532ZM76.6835 51.8481L74.7754 52.261L87.4497 62.6337L76.6835 51.8481ZM74.7754 52.261L72.9523 52.7919L85.5426 63.0464L74.7754 52.261ZM72.9523 52.7919L71.2142 53.4408L83.7206 63.577L72.9523 52.7919ZM71.2142 53.4408L69.5612 54.2076L81.9835 64.2254L71.2142 53.4408ZM69.5612 54.2076L67.9932 55.0924L80.3315 64.9918L69.5612 54.2076ZM67.9932 55.0924L66.5103 56.0952L78.7645 65.8761L67.9932 55.0924ZM66.5103 56.0952L65.1125 57.2159L77.2824 66.8783L66.5103 56.0952ZM65.1125 57.2159L63.7997 58.4547L75.8854 67.9984L65.1125 57.2159ZM63.7997 58.4547L62.5719 59.8114L74.5733 69.2364L63.7997 58.4547ZM62.5719 59.8114L61.4361 61.2367L73.3463 70.5923L62.5719 59.8114ZM61.4361 61.2367L60.399 62.747L72.2111 72.0168L61.4361 61.2367ZM60.399 62.747L59.4607 64.3424L71.1746 73.5263L60.399 62.747ZM59.4607 64.3424L58.6212 66.0228L70.2369 75.1207L59.4607 64.3424ZM58.6212 66.0228L57.8804 67.7883L69.3978 76.8002L58.6212 66.0228ZM57.8804 67.7883L57.2384 69.6389L68.6575 78.5647L57.8804 67.7883ZM57.2384 69.6389L56.6952 71.5745L68.0159 80.4141L57.2384 69.6389ZM56.6952 71.5745L56.2507 73.5951L67.4729 82.3486L56.6952 71.5745ZM56.2507 73.5951L55.905 75.7008L67.0287 84.3681L56.2507 73.5951ZM55.905 75.7008L55.6581 77.8916L66.6832 86.4725L55.905 75.7008ZM55.6581 77.8916L55.5099 80.1674L66.4365 88.662L55.6581 77.8916ZM55.5099 80.1674L55.4606 82.5282L66.2884 90.9365L55.5099 80.1674ZM55.4606 82.5282L55.5099 84.8589L66.239 93.296L55.4606 82.5282ZM81.8516 143.029L92.621 153.768L93.3878 153.642L81.8516 143.029ZM81.0651 143.145L91.835 153.883L92.621 153.768L81.0651 143.145ZM80.2594 143.249L91.0297 153.988L91.835 153.883L80.2594 143.249ZM79.4345 143.342L90.2053 154.081L91.0297 153.988L79.4345 143.342ZM78.5903 143.425L89.3616 154.163L90.2053 154.081L78.5903 143.425ZM77.727 143.496L88.4988 154.234L89.3616 154.163L77.727 143.496ZM76.8444 143.556L87.6167 154.295L88.4988 154.234L76.8444 143.556ZM75.9426 143.606L86.7154 154.344L87.6167 154.295L75.9426 143.606ZM75.0216 143.644L85.795 154.383L86.7154 154.344L75.0216 143.644ZM74.0814 143.672L84.8553 154.41L85.795 154.383L74.0814 143.672ZM73.1219 143.688L83.8964 154.426L84.8553 154.41L73.1219 143.688ZM72.1433 143.694L82.9183 154.432L83.8964 154.426L72.1433 143.694ZM68.871 143.629L79.648 154.368L82.9183 154.432L68.871 143.629ZM65.6427 143.435L76.4215 154.174L79.648 154.368L65.6427 143.435ZM62.4583 143.113L73.239 153.852L76.4215 154.174L62.4583 143.113ZM59.3178 142.661L70.1003 153.4L73.239 153.852L59.3178 142.661ZM56.2212 142.081L67.0055 152.82L70.1003 153.4L56.2212 142.081ZM53.1686 141.371L63.9547 152.111L67.0055 152.82L53.1686 141.371ZM50.1599 140.532L60.9477 151.273L63.9547 152.111L50.1599 140.532ZM47.1951 139.565L57.9847 150.306L60.9477 151.273L47.1951 139.565ZM44.2742 138.468L55.0655 149.21L57.9847 150.306L44.2742 138.468ZM41.3973 137.242L52.1902 147.985L55.0655 149.21L41.3973 137.242ZM38.5643 135.888L49.3588 146.631L52.1902 147.985L38.5643 135.888ZM35.7752 134.404L46.5714 145.148L49.3588 146.631L35.7752 134.404ZM33.0876 132.806L43.8854 143.551L46.5714 145.148L33.0876 132.806ZM30.4934 131.11L41.2927 141.855L43.8854 143.551L30.4934 131.11ZM27.9926 129.314L38.7933 140.061L41.2927 141.855L27.9926 129.314ZM25.5851 127.42L36.3872 138.168L38.7933 140.061L25.5851 127.42ZM23.2709 125.427L34.0743 136.176L36.3872 138.168L23.2709 125.427ZM21.05 123.335L31.8548 134.086L34.0743 136.176L21.05 123.335ZM125.099 22.3855L135.843 33.1945L133.735 31.0202L125.099 22.3855ZM127.113 24.6627L137.856 35.4703L135.843 33.1945L127.113 24.6627ZM129.03 27.0414L139.772 37.8476L137.856 35.4703L129.03 27.0414ZM130.852 29.5216L141.593 40.3265L139.772 37.8476L130.852 29.5216ZM132.577 32.1035L143.317 42.9068L141.593 40.3265L132.577 32.1035ZM134.206 34.7869L144.945 45.5887L143.317 42.9068L134.206 34.7869ZM135.753 37.5499L146.491 48.3501L144.945 45.5887L135.753 37.5499ZM137.166 40.3706L147.903 51.1691L146.491 48.3501L137.166 40.3706ZM138.443 43.2489L149.18 54.0457L147.903 51.1691L138.443 43.2489ZM139.587 46.1849L150.323 56.98L149.18 54.0457L139.587 46.1849ZM140.596 49.1785L151.331 59.9719L150.323 56.98L140.596 49.1785ZM141.47 52.2297L152.205 63.0214L151.331 59.9719L141.47 52.2297ZM142.21 55.3386L152.944 66.1285L152.205 63.0214L142.21 55.3386ZM142.815 58.5052L153.549 69.2932L152.944 66.1285L142.815 58.5052ZM143.286 61.7294L154.02 72.5155L153.549 69.2932L143.286 61.7294ZM143.622 65.0113L154.356 75.7955L154.02 72.5155L143.622 65.0113ZM143.824 68.3508L154.557 79.133L154.356 75.7955L143.824 68.3508ZM143.891 71.7479L154.625 82.5282L154.557 79.133L143.891 71.7479ZM143.846 74.5302L154.579 85.3088L154.625 82.5282L143.846 74.5302ZM143.71 77.2767L154.443 88.0538L154.579 85.3088L143.71 77.2767ZM143.484 79.9876L154.217 90.7631L154.443 88.0538L143.484 79.9876ZM143.167 82.6628L153.9 93.4367L154.217 90.7631L143.167 82.6628ZM142.759 85.3023L153.493 96.0747L153.9 93.4367L142.759 85.3023ZM142.261 87.9061L152.995 98.6769L153.493 96.0747L142.261 87.9061ZM141.672 90.4742L152.406 101.244L152.995 98.6769L141.672 90.4742ZM140.992 93.0066L151.727 103.775L152.406 101.244L140.992 93.0066ZM140.222 95.5033L150.958 106.27L151.727 103.775L140.222 95.5033ZM139.362 97.9644L150.098 108.729L150.958 106.27L139.362 97.9644ZM138.41 100.39L149.147 111.153L150.098 108.729L138.41 100.39ZM137.369 102.779L148.106 113.542L149.147 111.153L137.369 102.779ZM136.247 105.09L146.985 115.85L148.106 113.542L136.247 105.09ZM135.057 107.342L145.796 118.101L146.985 115.85L135.057 107.342ZM133.799 109.537L144.538 120.295L145.796 118.101L133.799 109.537ZM132.471 111.674L143.211 122.431L144.538 120.295L132.471 111.674ZM131.075 113.753L141.816 124.509L143.211 122.431L131.075 113.753ZM129.611 115.775L140.352 126.53L141.816 124.509L129.611 115.775ZM128.078 117.739L138.82 128.493L140.352 126.53L128.078 117.739ZM126.476 119.646L137.219 130.398L138.82 128.493L126.476 119.646ZM124.805 121.495L135.55 132.246L137.219 130.398L124.805 121.495ZM123.066 123.286L133.812 134.036L135.55 132.246L123.066 123.286ZM121.259 125.019L132.005 135.769L133.812 134.036L121.259 125.019ZM119.382 126.695L130.13 137.444L132.005 135.769L119.382 126.695ZM147.844 165.04L158.575 175.766L130.13 137.444L147.844 165.04ZM96.0593 165.04L106.82 175.766H158.575L96.0593 165.04ZM44.8672 76.3324L55.6581 87.11L55.5099 84.8589L44.8672 76.3324ZM45.1143 78.5052L55.905 89.2816L55.6581 87.11L45.1143 78.5052ZM45.4601 80.5984L56.2507 91.3735L55.905 89.2816L45.4601 80.5984ZM45.9049 82.612L56.6952 93.3859L56.2507 91.3735L45.9049 82.612ZM46.4484 84.546L57.2384 95.3188L56.6952 93.3859L46.4484 84.546ZM47.0908 86.4003L57.8804 97.1721L57.2384 95.3188L47.0908 86.4003ZM47.832 88.1751L58.6212 98.9458L57.8804 97.1721L47.832 88.1751ZM48.672 89.8702L59.4607 100.64L58.6212 98.9458L48.672 89.8702ZM49.6109 91.4858L60.399 102.255L59.4607 100.64L49.6109 91.4858ZM50.6485 93.0217L61.4361 103.79L60.399 102.255L50.6485 93.0217ZM51.785 94.478L62.5719 105.245L61.4361 103.79L51.785 94.478ZM53.0135 95.8039L63.7997 106.57L62.5719 105.245L53.0135 95.8039ZM89.7673 46.4209L100.532 57.2159L101.841 58.4547L89.7673 46.4209ZM88.3755 45.2995L99.1411 56.0952L100.532 57.2159L88.3755 45.2995ZM86.9013 44.2962L97.6678 55.0924L99.1411 56.0952L86.9013 44.2962ZM85.3448 43.4109L96.1122 54.2076L97.6678 55.0924L85.3448 43.4109ZM83.706 42.6436L94.4743 53.4408L96.1122 54.2076L83.706 42.6436ZM81.9847 41.9943L92.7541 52.7919L94.4743 53.4408L81.9847 41.9943ZM80.1811 41.4631L90.9515 52.261L92.7541 52.7919L80.1811 41.4631ZM78.2952 41.05L89.0667 51.8481L90.9515 52.261L78.2952 41.05ZM76.3269 40.7549L87.0995 51.5532L89.0667 51.8481L76.3269 40.7549ZM74.2763 40.5778L85.0501 51.3762L87.0995 51.5532L74.2763 40.5778ZM72.1433 40.5188L82.9183 51.3172L85.0501 51.3762L72.1433 40.5188ZM69.9787 40.5778L80.755 51.3762L82.9183 51.3172L69.9787 40.5778ZM67.8992 40.7549L78.6768 51.5532L80.755 51.3762L67.8992 40.7549ZM65.9049 41.05L76.6835 51.8481L78.6768 51.5532L65.9049 41.05ZM63.9956 41.4631L74.7754 52.261L76.6835 51.8481L63.9956 41.4631ZM62.1714 41.9943L72.9523 52.7919L74.7754 52.261L62.1714 41.9943ZM60.4323 42.6436L71.2142 53.4408L72.9523 52.7919L60.4323 42.6436ZM58.7784 43.4109L69.5612 54.2076L71.2142 53.4408L58.7784 43.4109ZM57.2095 44.2962L67.9932 55.0924L69.5612 54.2076L57.2095 44.2962ZM55.7257 45.2995L66.5103 56.0952L67.9932 55.0924L55.7257 45.2995ZM54.3271 46.4209L65.1125 57.2159L66.5103 56.0952L54.3271 46.4209ZM53.0135 47.6604L63.7997 58.4547L65.1125 57.2159L53.0135 47.6604ZM51.785 49.0179L62.5719 59.8114L63.7997 58.4547L51.785 49.0179ZM50.6485 50.444L61.4361 61.2367L62.5719 59.8114L50.6485 50.444ZM49.6109 51.9552L60.399 62.747L61.4361 61.2367L49.6109 51.9552ZM48.672 53.5515L59.4607 64.3424L60.399 62.747L48.672 53.5515ZM47.832 55.233L58.6212 66.0228L59.4607 64.3424L47.832 55.233ZM47.0908 56.9995L57.8804 67.7883L58.6212 66.0228L47.0908 56.9995ZM46.4484 58.8511L57.2384 69.6389L57.8804 67.7883L46.4484 58.8511ZM45.9049 60.7878L56.6952 71.5745L57.2384 69.6389L45.9049 60.7878ZM45.4601 62.8096L56.2507 73.5951L56.6952 71.5745L45.4601 62.8096ZM45.1143 64.9166L55.905 75.7008L56.2507 73.5951L45.1143 64.9166ZM44.8672 67.1086L55.6581 77.8916L55.905 75.7008L44.8672 67.1086ZM44.7189 69.3857L55.5099 80.1674L55.6581 77.8916L44.7189 69.3857ZM44.6695 71.7479L55.4606 82.5282L55.5099 80.1674L44.6695 71.7479ZM44.7189 74.08L55.5099 84.8589L55.4606 82.5282L44.7189 74.08ZM82.6189 142.903L81.8516 143.029L93.3878 153.642L82.6189 142.903ZM81.8516 143.029L81.0651 143.145L92.621 153.768L81.8516 143.029ZM81.0651 143.145L80.2594 143.249L91.835 153.883L81.0651 143.145ZM80.2594 143.249L79.4345 143.342L91.0297 153.988L80.2594 143.249ZM79.4345 143.342L78.5903 143.425L90.2053 154.081L79.4345 143.342ZM78.5903 143.425L77.727 143.496L89.3616 154.163L78.5903 143.425ZM77.727 143.496L76.8444 143.556L88.4988 154.234L77.727 143.496ZM76.8444 143.556L75.9426 143.606L87.6167 154.295L76.8444 143.556ZM75.9426 143.606L75.0216 143.644L86.7154 154.344L75.9426 143.606ZM75.0216 143.644L74.0814 143.672L85.795 154.383L75.0216 143.644ZM74.0814 143.672L73.1219 143.688L84.8553 154.41L74.0814 143.672ZM73.1219 143.688L72.1433 143.694L83.8964 154.426L73.1219 143.688ZM72.1433 143.694L68.871 143.629L82.9183 154.432L72.1433 143.694ZM68.871 143.629L65.6427 143.435L79.648 154.368L68.871 143.629ZM65.6427 143.435L62.4583 143.113L76.4215 154.174L65.6427 143.435ZM62.4583 143.113L59.3178 142.661L73.239 153.852L62.4583 143.113ZM59.3178 142.661L56.2212 142.081L70.1003 153.4L59.3178 142.661ZM56.2212 142.081L53.1686 141.371L67.0055 152.82L56.2212 142.081ZM53.1686 141.371L50.1599 140.532L63.9547 152.111L53.1686 141.371ZM50.1599 140.532L47.1951 139.565L60.9477 151.273L50.1599 140.532ZM47.1951 139.565L44.2742 138.468L57.9847 150.306L47.1951 139.565ZM44.2742 138.468L41.3973 137.242L55.0655 149.21L44.2742 138.468ZM41.3973 137.242L38.5643 135.888L52.1902 147.985L41.3973 137.242ZM38.5643 135.888L35.7752 134.404L49.3588 146.631L38.5643 135.888ZM35.7752 134.404L33.0876 132.806L46.5714 145.148L35.7752 134.404ZM33.0876 132.806L30.4934 131.11L43.8854 143.551L33.0876 132.806ZM30.4934 131.11L27.9926 129.314L41.2927 141.855L30.4934 131.11ZM27.9926 129.314L25.5851 127.42L38.7933 140.061L27.9926 129.314ZM25.5851 127.42L23.2709 125.427L36.3872 138.168L25.5851 127.42ZM23.2709 125.427L21.05 123.335L34.0743 136.176L23.2709 125.427ZM122.989 20.21L125.099 22.3855L133.735 31.0202L122.989 20.21ZM125.099 22.3855L127.113 24.6627L135.843 33.1945L125.099 22.3855ZM127.113 24.6627L129.03 27.0414L137.856 35.4703L127.113 24.6627ZM129.03 27.0414L130.852 29.5216L139.772 37.8476L129.03 27.0414ZM130.852 29.5216L132.577 32.1035L141.593 40.3265L130.852 29.5216ZM132.577 32.1035L134.206 34.7869L143.317 42.9068L132.577 32.1035ZM134.206 34.7869L135.753 37.5499L144.945 45.5887L134.206 34.7869ZM135.753 37.5499L137.166 40.3706L146.491 48.3501L135.753 37.5499ZM137.166 40.3706L138.443 43.2489L147.903 51.1691L137.166 40.3706ZM138.443 43.2489L139.587 46.1849L149.18 54.0457L138.443 43.2489ZM139.587 46.1849L140.596 49.1785L150.323 56.98L139.587 46.1849ZM140.596 49.1785L141.47 52.2297L151.331 59.9719L140.596 49.1785ZM141.47 52.2297L142.21 55.3386L152.205 63.0214L141.47 52.2297ZM142.21 55.3386L142.815 58.5052L152.944 66.1285L142.21 55.3386ZM142.815 58.5052L143.286 61.7294L153.549 69.2932L142.815 58.5052ZM143.286 61.7294L143.622 65.0113L154.02 72.5155L143.286 61.7294ZM143.622 65.0113L143.824 68.3508L154.356 75.7955L143.622 65.0113ZM143.824 68.3508L143.891 71.7479L154.557 79.133L143.824 68.3508ZM143.891 71.7479L143.846 74.5302L154.625 82.5282L143.891 71.7479ZM143.846 74.5302L143.71 77.2767L154.579 85.3088L143.846 74.5302ZM143.71 77.2767L143.484 79.9876L154.443 88.0538L143.71 77.2767ZM143.484 79.9876L143.167 82.6628L154.217 90.7631L143.484 79.9876ZM143.167 82.6628L142.759 85.3023L153.9 93.4367L143.167 82.6628ZM142.759 85.3023L142.261 87.9061L153.493 96.0747L142.759 85.3023ZM142.261 87.9061L141.672 90.4742L152.995 98.6769L142.261 87.9061ZM141.672 90.4742L140.992 93.0066L152.406 101.244L141.672 90.4742ZM140.992 93.0066L140.222 95.5033L151.727 103.775L140.992 93.0066ZM140.222 95.5033L139.362 97.9644L150.958 106.27L140.222 95.5033ZM139.362 97.9644L138.41 100.39L150.098 108.729L139.362 97.9644ZM138.41 100.39L137.369 102.779L149.147 111.153L138.41 100.39ZM137.369 102.779L136.247 105.09L148.106 113.542L137.369 102.779ZM136.247 105.09L135.057 107.342L146.985 115.85L136.247 105.09ZM135.057 107.342L133.799 109.537L145.796 118.101L135.057 107.342ZM133.799 109.537L132.471 111.674L144.538 120.295L133.799 109.537ZM132.471 111.674L131.075 113.753L143.211 122.431L132.471 111.674ZM131.075 113.753L129.611 115.775L141.816 124.509L131.075 113.753ZM129.611 115.775L128.078 117.739L140.352 126.53L129.611 115.775ZM128.078 117.739L126.476 119.646L138.82 128.493L128.078 117.739ZM126.476 119.646L124.805 121.495L137.219 130.398L126.476 119.646ZM124.805 121.495L123.066 123.286L135.55 132.246L124.805 121.495ZM123.066 123.286L121.259 125.019L133.812 134.036L123.066 123.286ZM121.259 125.019L119.382 126.695L132.005 135.769L121.259 125.019ZM119.382 126.695L147.844 165.04L130.13 137.444L119.382 126.695ZM147.844 165.04H96.0593L158.575 175.766L147.844 165.04ZM44.7189 74.08L44.8672 76.3324L55.5099 84.8589L44.7189 74.08ZM44.8672 76.3324L45.1143 78.5052L55.6581 87.11L44.8672 76.3324ZM45.1143 78.5052L45.4601 80.5984L55.905 89.2816L45.1143 78.5052ZM45.4601 80.5984L45.9049 82.612L56.2507 91.3735L45.4601 80.5984ZM45.9049 82.612L46.4484 84.546L56.6952 93.3859L45.9049 82.612ZM46.4484 84.546L47.0908 86.4003L57.2384 95.3188L46.4484 84.546ZM47.0908 86.4003L47.832 88.1751L57.8804 97.1721L47.0908 86.4003ZM47.832 88.1751L48.672 89.8702L58.6212 98.9458L47.832 88.1751ZM48.672 89.8702L49.6109 91.4858L59.4607 100.64L48.672 89.8702ZM49.6109 91.4858L50.6485 93.0217L60.399 102.255L49.6109 91.4858ZM50.6485 93.0217L51.785 94.478L61.4361 103.79L50.6485 93.0217ZM51.785 94.478L53.0135 95.8039L62.5719 105.245L51.785 94.478ZM91.0768 47.6604L89.7673 46.4209L101.841 58.4547L91.0768 47.6604ZM89.7673 46.4209L88.3755 45.2995L100.532 57.2159L89.7673 46.4209ZM88.3755 45.2995L86.9013 44.2962L99.1411 56.0952L88.3755 45.2995ZM86.9013 44.2962L85.3448 43.4109L97.6678 55.0924L86.9013 44.2962ZM85.3448 43.4109L83.706 42.6436L96.1122 54.2076L85.3448 43.4109ZM83.706 42.6436L81.9847 41.9943L94.4743 53.4408L83.706 42.6436ZM81.9847 41.9943L80.1811 41.4631L92.7541 52.7919L81.9847 41.9943ZM80.1811 41.4631L78.2952 41.05L90.9515 52.261L80.1811 41.4631ZM78.2952 41.05L76.3269 40.7549L89.0667 51.8481L78.2952 41.05ZM76.3269 40.7549L74.2763 40.5778L87.0995 51.5532L76.3269 40.7549ZM74.2763 40.5778L72.1433 40.5188L85.0501 51.3762L74.2763 40.5778ZM72.1433 40.5188L69.9787 40.5778L82.9183 51.3172L72.1433 40.5188ZM69.9787 40.5778L67.8992 40.7549L80.755 51.3762L69.9787 40.5778ZM67.8992 40.7549L65.9049 41.05L78.6768 51.5532L67.8992 40.7549ZM65.9049 41.05L63.9956 41.4631L76.6835 51.8481L65.9049 41.05ZM63.9956 41.4631L62.1714 41.9943L74.7754 52.261L63.9956 41.4631ZM62.1714 41.9943L60.4323 42.6436L72.9523 52.7919L62.1714 41.9943ZM60.4323 42.6436L58.7784 43.4109L71.2142 53.4408L60.4323 42.6436ZM58.7784 43.4109L57.2095 44.2962L69.5612 54.2076L58.7784 43.4109ZM57.2095 44.2962L55.7257 45.2995L67.9932 55.0924L57.2095 44.2962ZM55.7257 45.2995L54.3271 46.4209L66.5103 56.0952L55.7257 45.2995ZM54.3271 46.4209L53.0135 47.6604L65.1125 57.2159L54.3271 46.4209ZM53.0135 47.6604L51.785 49.0179L63.7997 58.4547L53.0135 47.6604ZM51.785 49.0179L50.6485 50.444L62.5719 59.8114L51.785 49.0179ZM50.6485 50.444L49.6109 51.9552L61.4361 61.2367L50.6485 50.444ZM49.6109 51.9552L48.672 53.5515L60.399 62.747L49.6109 51.9552ZM48.672 53.5515L47.832 55.233L59.4607 64.3424L48.672 53.5515ZM47.832 55.233L47.0908 56.9995L58.6212 66.0228L47.832 55.233ZM47.0908 56.9995L46.4484 58.8511L57.8804 67.7883L47.0908 56.9995ZM46.4484 58.8511L45.9049 60.7878L57.2384 69.6389L46.4484 58.8511ZM45.9049 60.7878L45.4601 62.8096L56.6952 71.5745L45.9049 60.7878ZM45.4601 62.8096L45.1143 64.9166L56.2507 73.5951L45.4601 62.8096ZM45.1143 64.9166L44.8672 67.1086L55.905 75.7008L45.1143 64.9166ZM44.8672 67.1086L44.7189 69.3857L55.6581 77.8916L44.8672 67.1086ZM44.7189 69.3857L44.6695 71.7479L55.5099 80.1674L44.7189 69.3857ZM44.6695 71.7479L44.7189 74.08L55.4606 82.5282L44.6695 71.7479ZM81.0651 143.145L81.8516 143.029L82.6189 142.903L81.0651 143.145ZM79.4345 143.342L80.2594 143.249L81.0651 143.145L79.4345 143.342ZM77.727 143.496L78.5903 143.425L79.4345 143.342L77.727 143.496ZM75.9426 143.606L76.8444 143.556L77.727 143.496L75.9426 143.606ZM74.0814 143.672L75.0216 143.644L75.9426 143.606L74.0814 143.672ZM72.1433 143.694L73.1219 143.688L74.0814 143.672L72.1433 143.694ZM65.6427 143.435L68.871 143.629L72.1433 143.694L65.6427 143.435ZM59.3178 142.661L62.4583 143.113L65.6427 143.435L59.3178 142.661ZM53.1686 141.371L56.2212 142.081L59.3178 142.661L53.1686 141.371ZM47.1951 139.565L50.1599 140.532L53.1686 141.371L47.1951 139.565ZM41.3973 137.242L44.2742 138.468L47.1951 139.565L41.3973 137.242ZM35.7752 134.404L38.5643 135.888L41.3973 137.242L35.7752 134.404ZM30.4934 131.11L33.0876 132.806L35.7752 134.404L30.4934 131.11ZM25.5851 127.42L27.9926 129.314L30.4934 131.11L25.5851 127.42ZM21.05 123.335L23.2709 125.427L25.5851 127.42L21.05 123.335ZM16.8883 118.855L18.9225 121.145L21.05 123.335L16.8883 118.855ZM13.1 113.98L14.9475 116.467L16.8883 118.855L13.1 113.98ZM9.68499 108.709L11.3458 111.394L13.1 113.98L9.68499 108.709ZM6.72568 103.125L8.13808 105.946L9.68499 108.709L6.72568 103.125ZM4.30444 97.311L5.4478 100.247L6.72568 103.125L4.30444 97.311ZM2.42124 91.2662L3.29558 94.3174L4.30444 97.311L2.42124 91.2662ZM1.07611 84.9907L1.68142 88.1572L2.42124 91.2662L1.07611 84.9907ZM0.269024 78.4846L0.605309 81.7665L1.07611 84.9907L0.269024 78.4846ZM0 71.7479L0.0672539 75.1451L0.269024 78.4846L0 71.7479ZM44.7189 74.08L44.6695 71.7479H0L44.7189 74.08ZM0 71.7479H44.6695L44.7189 69.3857L0 71.7479ZM0.269024 65.0113L0.0672539 68.3508L0 71.7479L0.269024 65.0113ZM1.07611 58.5052L0.605309 61.7294L0.269024 65.0113L1.07611 58.5052ZM2.42124 52.2297L1.68142 55.3386L1.07611 58.5052L2.42124 52.2297ZM4.30444 46.1849L3.29558 49.1785L2.42124 52.2297L4.30444 46.1849ZM6.72568 40.3706L5.4478 43.2489L4.30444 46.1849L6.72568 40.3706ZM9.68499 34.7869L8.13808 37.5499L6.72568 40.3706L9.68499 34.7869ZM13.1 29.5216L11.3458 32.1035L9.68499 34.7869L13.1 29.5216ZM16.8883 24.6627L14.9475 27.0414L13.1 29.5216L16.8883 24.6627ZM21.05 20.21L18.9225 22.3855L16.8883 24.6627L21.05 20.21ZM25.5851 16.1636L23.2709 18.136L21.05 20.21L25.5851 16.1636ZM30.4934 12.5235L27.9926 14.2928L25.5851 16.1636L30.4934 12.5235ZM35.7752 9.28968L33.0876 10.8558L30.4934 12.5235L35.7752 9.28968ZM41.3973 6.45116L38.5643 7.80591L35.7752 9.28968L41.3973 6.45116ZM47.1951 4.12875L44.2742 5.22544L41.3973 6.45116L47.1951 4.12875ZM53.1686 2.32242L50.1599 3.16107L47.1951 4.12875L53.1686 2.32242ZM59.3178 1.03219L56.2212 1.61279L53.1686 2.32242L59.3178 1.03219ZM65.6427 0.258044L62.4583 0.580608L59.3178 1.03219L65.6427 0.258044ZM72.1433 0L68.871 0.0645129L65.6427 0.258044L72.1433 0ZM78.6384 0.258044L75.4142 0.0645129L72.1433 0L78.6384 0.258044ZM84.9468 1.03219L81.8159 0.580608L78.6384 0.258044L84.9468 1.03219ZM91.0685 2.32242L88.031 1.61279L84.9468 1.03219L91.0685 2.32242ZM97.0036 4.12875L94.0594 3.16107L91.0685 2.32242L97.0036 4.12875ZM102.752 6.45116L99.9011 5.22544L97.0036 4.12875L102.752 6.45116ZM108.314 9.28968L105.556 7.80591L102.752 6.45116L108.314 9.28968ZM113.59 12.5235L111 10.8558L108.314 9.28968L113.59 12.5235ZM118.482 16.1636L116.084 14.2928L113.59 12.5235L118.482 16.1636ZM122.989 20.21L120.784 18.136L118.482 16.1636L122.989 20.21ZM127.113 24.6627L125.099 22.3855L122.989 20.21L127.113 24.6627ZM130.852 29.5216L129.03 27.0414L127.113 24.6627L130.852 29.5216ZM134.206 34.7869L132.577 32.1035L130.852 29.5216L134.206 34.7869ZM137.166 40.3706L135.753 37.5499L134.206 34.7869L137.166 40.3706ZM139.587 46.1849L138.443 43.2489L137.166 40.3706L139.587 46.1849ZM141.47 52.2297L140.596 49.1785L139.587 46.1849L141.47 52.2297ZM142.815 58.5052L142.21 55.3386L141.47 52.2297L142.815 58.5052ZM143.622 65.0113L143.286 61.7294L142.815 58.5052L143.622 65.0113ZM143.891 71.7479L143.824 68.3508L143.622 65.0113L143.891 71.7479ZM143.71 77.2767L143.846 74.5302L143.891 71.7479L143.71 77.2767ZM143.167 82.6628L143.484 79.9876L143.71 77.2767L143.167 82.6628ZM142.261 87.9061L142.759 85.3023L143.167 82.6628L142.261 87.9061ZM140.992 93.0066L141.672 90.4742L142.261 87.9061L140.992 93.0066ZM139.362 97.9644L140.222 95.5033L140.992 93.0066L139.362 97.9644ZM137.369 102.779L138.41 100.39L139.362 97.9644L137.369 102.779ZM135.057 107.342L136.247 105.09L137.369 102.779L135.057 107.342ZM132.471 111.674L133.799 109.537L135.057 107.342L132.471 111.674ZM129.611 115.775L131.075 113.753L132.471 111.674L129.611 115.775ZM126.476 119.646L128.078 117.739L129.611 115.775L126.476 119.646ZM123.066 123.286L124.805 121.495L126.476 119.646L123.066 123.286ZM119.382 126.695L121.259 125.019L123.066 123.286L119.382 126.695ZM96.0593 165.04H147.844L119.382 126.695L96.0593 165.04ZM79.4345 143.342L81.0651 143.145L82.6189 142.903L79.4345 143.342ZM75.9426 143.606L77.727 143.496L79.4345 143.342L75.9426 143.606ZM72.1433 143.694L74.0814 143.672L75.9426 143.606L72.1433 143.694ZM59.3178 142.661L65.6427 143.435L72.1433 143.694L59.3178 142.661ZM47.1951 139.565L53.1686 141.371L59.3178 142.661L47.1951 139.565ZM35.7752 134.404L41.3973 137.242L47.1951 139.565L35.7752 134.404ZM25.5851 127.42L30.4934 131.11L35.7752 134.404L25.5851 127.42ZM16.8883 118.855L21.05 123.335L25.5851 127.42L16.8883 118.855ZM9.68499 108.709L13.1 113.98L16.8883 118.855L9.68499 108.709ZM4.30444 97.311L6.72568 103.125L9.68499 108.709L4.30444 97.311ZM1.07611 84.9907L2.42124 91.2662L4.30444 97.311L1.07611 84.9907ZM0 71.7479L0.269024 78.4846L1.07611 84.9907L0 71.7479ZM44.8672 76.3324L44.7189 74.08L0 71.7479L44.8672 76.3324ZM0 71.7479L44.7189 69.3857L44.8672 67.1086L0 71.7479ZM1.07611 58.5052L0.269024 65.0113L0 71.7479L1.07611 58.5052ZM4.30444 46.1849L2.42124 52.2297L1.07611 58.5052L4.30444 46.1849ZM9.68499 34.7869L6.72568 40.3706L4.30444 46.1849L9.68499 34.7869ZM16.8883 24.6627L13.1 29.5216L9.68499 34.7869L16.8883 24.6627ZM25.5851 16.1636L21.05 20.21L16.8883 24.6627L25.5851 16.1636ZM35.7752 9.28968L30.4934 12.5235L25.5851 16.1636L35.7752 9.28968ZM47.1951 4.12875L41.3973 6.45116L35.7752 9.28968L47.1951 4.12875ZM59.3178 1.03219L53.1686 2.32242L47.1951 4.12875L59.3178 1.03219ZM72.1433 0L65.6427 0.258044L59.3178 1.03219L72.1433 0ZM84.9468 1.03219L78.6384 0.258044L72.1433 0L84.9468 1.03219ZM97.0036 4.12875L91.0685 2.32242L84.9468 1.03219L97.0036 4.12875ZM108.314 9.28968L102.752 6.45116L97.0036 4.12875L108.314 9.28968ZM118.482 16.1636L113.59 12.5235L108.314 9.28968L118.482 16.1636ZM127.113 24.6627L122.989 20.21L118.482 16.1636L127.113 24.6627ZM134.206 34.7869L130.852 29.5216L127.113 24.6627L134.206 34.7869ZM139.587 46.1849L137.166 40.3706L134.206 34.7869L139.587 46.1849ZM142.815 58.5052L141.47 52.2297L139.587 46.1849L142.815 58.5052ZM143.891 71.7479L143.622 65.0113L142.815 58.5052L143.891 71.7479ZM143.167 82.6628L143.71 77.2767L143.891 71.7479L143.167 82.6628ZM140.992 93.0066L142.261 87.9061L143.167 82.6628L140.992 93.0066ZM137.369 102.779L139.362 97.9644L140.992 93.0066L137.369 102.779ZM132.471 111.674L135.057 107.342L137.369 102.779L132.471 111.674ZM126.476 119.646L129.611 115.775L132.471 111.674L126.476 119.646ZM119.382 126.695L123.066 123.286L126.476 119.646L119.382 126.695ZM82.6189 142.903L96.0593 165.04L119.382 126.695L82.6189 142.903ZM75.9426 143.606L79.4345 143.342L82.6189 142.903L75.9426 143.606ZM59.3178 142.661L72.1433 143.694L75.9426 143.606L59.3178 142.661ZM35.7752 134.404L47.1951 139.565L59.3178 142.661L35.7752 134.404ZM16.8883 118.855L25.5851 127.42L35.7752 134.404L16.8883 118.855ZM4.30444 97.311L9.68499 108.709L16.8883 118.855L4.30444 97.311ZM0 71.7479L1.07611 84.9907L4.30444 97.311L0 71.7479ZM45.1143 78.5052L44.8672 76.3324L0 71.7479L45.1143 78.5052ZM0 71.7479L44.8672 67.1086L45.1143 64.9166L0 71.7479ZM4.30444 46.1849L1.07611 58.5052L0 71.7479L4.30444 46.1849ZM16.8883 24.6627L9.68499 34.7869L4.30444 46.1849L16.8883 24.6627ZM35.7752 9.28968L25.5851 16.1636L16.8883 24.6627L35.7752 9.28968ZM59.3178 1.03219L47.1951 4.12875L35.7752 9.28968L59.3178 1.03219ZM84.9468 1.03219L72.1433 0L59.3178 1.03219H84.9468ZM108.314 9.28968L97.0036 4.12875L84.9468 1.03219L108.314 9.28968ZM127.113 24.6627L118.482 16.1636L108.314 9.28968L127.113 24.6627ZM139.587 46.1849L134.206 34.7869L127.113 24.6627L139.587 46.1849ZM143.891 71.7479L142.815 58.5052L139.587 46.1849L143.891 71.7479ZM140.992 93.0066L143.167 82.6628L143.891 71.7479L140.992 93.0066ZM132.471 111.674L137.369 102.779L140.992 93.0066L132.471 111.674ZM119.382 126.695L126.476 119.646L132.471 111.674L119.382 126.695ZM75.9426 143.606L82.6189 142.903L119.382 126.695L75.9426 143.606ZM35.7752 134.404L59.3178 142.661L75.9426 143.606L35.7752 134.404ZM4.30444 97.311L16.8883 118.855L35.7752 134.404L4.30444 97.311ZM45.1143 78.5052L0 71.7479L4.30444 97.311L45.1143 78.5052ZM0 71.7479L45.1143 64.9166L45.4601 62.8096L0 71.7479ZM16.8883 24.6627L4.30444 46.1849L0 71.7479L16.8883 24.6627ZM59.3178 1.03219L35.7752 9.28968L16.8883 24.6627L59.3178 1.03219ZM108.314 9.28968L84.9468 1.03219H59.3178L108.314 9.28968ZM139.587 46.1849L127.113 24.6627L108.314 9.28968L139.587 46.1849ZM140.992 93.0066L143.891 71.7479L139.587 46.1849L140.992 93.0066ZM119.382 126.695L132.471 111.674L140.992 93.0066L119.382 126.695ZM35.7752 134.404L75.9426 143.606L119.382 126.695L35.7752 134.404ZM45.1143 78.5052L4.30444 97.311L35.7752 134.404L45.1143 78.5052ZM0 71.7479L45.4601 62.8096L45.9049 60.7878L0 71.7479ZM59.3178 1.03219L16.8883 24.6627L0 71.7479L59.3178 1.03219ZM139.587 46.1849L108.314 9.28968L59.3178 1.03219L139.587 46.1849ZM119.382 126.695L140.992 93.0066L139.587 46.1849L119.382 126.695ZM45.4601 80.5984L45.1143 78.5052L35.7752 134.404L45.4601 80.5984ZM0 71.7479L45.9049 60.7878L46.4484 58.8511L0 71.7479ZM45.9049 82.612L45.4601 80.5984L35.7752 134.404L45.9049 82.612ZM0 71.7479L46.4484 58.8511L47.0908 56.9995L0 71.7479ZM46.4484 84.546L45.9049 82.612L35.7752 134.404L46.4484 84.546ZM0 71.7479L47.0908 56.9995L47.832 55.233L0 71.7479ZM47.0908 86.4003L46.4484 84.546L35.7752 134.404L47.0908 86.4003ZM0 71.7479L47.832 55.233L48.672 53.5515L0 71.7479ZM47.832 88.1751L47.0908 86.4003L35.7752 134.404L47.832 88.1751ZM0 71.7479L48.672 53.5515L49.6109 51.9552L0 71.7479ZM48.672 89.8702L47.832 88.1751L35.7752 134.404L48.672 89.8702ZM0 71.7479L49.6109 51.9552L50.6485 50.444L0 71.7479ZM49.6109 91.4858L48.672 89.8702L35.7752 134.404L49.6109 91.4858ZM0 71.7479L50.6485 50.444L51.785 49.0179L0 71.7479ZM50.6485 93.0217L49.6109 91.4858L35.7752 134.404L50.6485 93.0217ZM0 71.7479L51.785 49.0179L53.0135 47.6604L0 71.7479ZM51.785 94.478L50.6485 93.0217L35.7752 134.404L51.785 94.478ZM0 71.7479L53.0135 47.6604L54.3271 46.4209L0 71.7479ZM53.0135 95.8039L51.785 94.478L35.7752 134.404L53.0135 95.8039ZM0 71.7479L54.3271 46.4209L55.7257 45.2995L0 71.7479ZM54.3271 97.0145L53.0135 95.8039L35.7752 134.404L54.3271 97.0145ZM0 71.7479L55.7257 45.2995L57.2095 44.2962L0 71.7479ZM55.7257 98.1099L54.3271 97.0145L35.7752 134.404L55.7257 98.1099ZM0 71.7479L57.2095 44.2962L58.7784 43.4109L0 71.7479ZM57.2095 99.0899L55.7257 98.1099L35.7752 134.404L57.2095 99.0899ZM59.3178 1.03219L0 71.7479L58.7784 43.4109L59.3178 1.03219ZM58.7784 99.9546L57.2095 99.0899L35.7752 134.404L58.7784 99.9546ZM59.3178 1.03219L58.7784 43.4109L60.4323 42.6436L59.3178 1.03219ZM60.4323 100.704L58.7784 99.9546L35.7752 134.404L60.4323 100.704ZM59.3178 1.03219L60.4323 42.6436L62.1714 41.9943L59.3178 1.03219ZM60.4323 100.704L35.7752 134.404L119.382 126.695L60.4323 100.704ZM59.3178 1.03219L62.1714 41.9943L63.9956 41.4631L59.3178 1.03219ZM62.1714 101.338L60.4323 100.704L119.382 126.695L62.1714 101.338ZM59.3178 1.03219L63.9956 41.4631L65.9049 41.05L59.3178 1.03219ZM63.9956 101.857L62.1714 101.338L119.382 126.695L63.9956 101.857ZM59.3178 1.03219L65.9049 41.05L67.8992 40.7549L59.3178 1.03219ZM65.9049 102.261L63.9956 101.857L119.382 126.695L65.9049 102.261ZM59.3178 1.03219L67.8992 40.7549L69.9787 40.5778L59.3178 1.03219ZM67.8992 102.549L65.9049 102.261L119.382 126.695L67.8992 102.549ZM59.3178 1.03219L69.9787 40.5778L72.1433 40.5188L59.3178 1.03219ZM69.9787 102.722L67.8992 102.549L119.382 126.695L69.9787 102.722ZM59.3178 1.03219L72.1433 40.5188L74.2763 40.5778L59.3178 1.03219ZM72.1433 102.779L69.9787 102.722L119.382 126.695L72.1433 102.779ZM59.3178 1.03219L74.2763 40.5778L76.3269 40.7549L59.3178 1.03219ZM74.2763 102.722L72.1433 102.779L119.382 126.695L74.2763 102.722ZM59.3178 1.03219L76.3269 40.7549L78.2952 41.05L59.3178 1.03219ZM76.3269 102.549L74.2763 102.722L119.382 126.695L76.3269 102.549ZM59.3178 1.03219L78.2952 41.05L80.1811 41.4631L59.3178 1.03219ZM78.2952 102.261L76.3269 102.549L119.382 126.695L78.2952 102.261ZM59.3178 1.03219L80.1811 41.4631L81.9847 41.9943L59.3178 1.03219ZM80.1811 101.857L78.2952 102.261L119.382 126.695L80.1811 101.857ZM59.3178 1.03219L81.9847 41.9943L83.706 42.6436L59.3178 1.03219ZM81.9847 101.338L80.1811 101.857L119.382 126.695L81.9847 101.338ZM59.3178 1.03219L83.706 42.6436L85.3448 43.4109L59.3178 1.03219ZM83.706 100.704L81.9847 101.338L119.382 126.695L83.706 100.704ZM59.3178 1.03219L85.3448 43.4109L86.9013 44.2962L59.3178 1.03219ZM85.3448 99.9546L83.706 100.704L119.382 126.695L85.3448 99.9546ZM59.3178 1.03219L86.9013 44.2962L88.3755 45.2995L59.3178 1.03219ZM86.9013 99.0899L85.3448 99.9546L119.382 126.695L86.9013 99.0899ZM59.3178 1.03219L88.3755 45.2995L89.7673 46.4209L59.3178 1.03219ZM88.3755 98.1099L86.9013 99.0899L119.382 126.695L88.3755 98.1099ZM59.3178 1.03219L89.7673 46.4209L91.0768 47.6604L59.3178 1.03219ZM89.7673 97.0145L88.3755 98.1099L119.382 126.695L89.7673 97.0145ZM59.3178 1.03219L91.0768 47.6604L92.3039 49.0179L59.3178 1.03219ZM91.0768 95.8039L89.7673 97.0145L119.382 126.695L91.0768 95.8039ZM59.3178 1.03219L92.3039 49.0179L93.4404 50.444L59.3178 1.03219ZM91.0768 95.8039L119.382 126.695L139.587 46.1849L91.0768 95.8039ZM139.587 46.1849L59.3178 1.03219L93.4404 50.444L139.587 46.1849ZM92.3039 94.478L91.0768 95.8039L139.587 46.1849L92.3039 94.478ZM139.587 46.1849L93.4404 50.444L94.478 51.9552L139.587 46.1849ZM93.4404 93.0217L92.3039 94.478L139.587 46.1849L93.4404 93.0217ZM139.587 46.1849L94.478 51.9552L95.4169 53.5515L139.587 46.1849ZM94.478 91.4858L93.4404 93.0217L139.587 46.1849L94.478 91.4858ZM139.587 46.1849L95.4169 53.5515L96.2569 55.233L139.587 46.1849ZM95.4169 89.8702L94.478 91.4858L139.587 46.1849L95.4169 89.8702ZM139.587 46.1849L96.2569 55.233L96.9981 56.9995L139.587 46.1849ZM96.2569 88.1751L95.4169 89.8702L139.587 46.1849L96.2569 88.1751ZM139.587 46.1849L96.9981 56.9995L97.6405 58.8511L139.587 46.1849ZM96.9981 86.4003L96.2569 88.1751L139.587 46.1849L96.9981 86.4003ZM139.587 46.1849L97.6405 58.8511L98.184 60.7878L139.587 46.1849ZM97.6405 84.546L96.9981 86.4003L139.587 46.1849L97.6405 84.546ZM139.587 46.1849L98.184 60.7878L98.6288 62.8096L139.587 46.1849ZM98.184 82.612L97.6405 84.546L139.587 46.1849L98.184 82.612ZM139.587 46.1849L98.6288 62.8096L98.9746 64.9166L139.587 46.1849ZM98.6288 80.5984L98.184 82.612L139.587 46.1849L98.6288 80.5984ZM139.587 46.1849L98.9746 64.9166L99.2217 67.1086L139.587 46.1849ZM98.9746 78.5052L98.6288 80.5984L139.587 46.1849L98.9746 78.5052ZM139.587 46.1849L99.2217 67.1086L99.37 69.3857L139.587 46.1849ZM99.2217 76.3324L98.9746 78.5052L139.587 46.1849L99.2217 76.3324ZM139.587 46.1849L99.37 69.3857L99.4194 71.7479L139.587 46.1849ZM99.37 74.08L99.2217 76.3324L139.587 46.1849L99.37 74.08ZM139.587 46.1849L99.4194 71.7479L99.37 74.08L139.587 46.1849Z" fill="#1E1E1E" fill-opacity="0.05"/>
<path d="M107.486 165.04C100.391 165.04 93.8111 161.337 90.1293 155.273L88.0776 151.894C84.785 146.471 78.4875 143.694 72.1433 143.694C58.9664 143.694 46.8437 140.597 35.7752 134.404C24.8384 128.211 16.1416 119.646 9.68499 108.709C3.22833 97.7722 0 85.4519 0 71.748C0 58.044 3.22833 45.7237 9.68499 34.7869C16.1416 23.8501 24.8384 15.351 35.7752 9.28968C46.8437 3.09656 58.9664 0 72.1433 0C85.3201 0 97.3769 3.09656 108.314 9.28968C119.251 15.351 127.881 23.8501 134.206 34.7869C140.663 45.7237 143.891 58.044 143.891 71.748C143.891 82.9483 141.717 93.2921 137.369 102.779C135.227 107.387 132.686 111.658 129.746 115.594C124.613 122.467 123.339 132.027 128.452 138.914C136.469 149.716 128.76 165.04 115.308 165.04H107.486ZM44.6695 71.748C44.6695 81.2353 47.0414 88.812 51.785 94.478C56.5287 100.012 63.3148 102.779 72.1433 102.779C80.84 102.779 87.5602 100.012 92.3039 94.478C97.0475 88.812 99.4194 81.2353 99.4194 71.748C99.4194 62.1289 97.0475 54.5522 92.3039 49.0179C87.5602 43.3518 80.84 40.5188 72.1433 40.5188C63.3148 40.5188 56.5287 43.3518 51.785 49.0179C47.0414 54.5522 44.6695 62.1289 44.6695 71.748Z" fill="#1E1E1E" fill-opacity="0.05"/>
</svg>
