<svg width="1030" height="252" viewBox="0 0 1030 252" fill="none" xmlns="http://www.w3.org/2000/svg">
<g filter="url(#filter0_b_45_146)">
<path d="M422.4 111C422.4 127.933 417.4 142.867 407.4 155.8L420 169.4L395 191.6L381.2 176.8C371.2 181.6 360.467 184 349 184C328.467 184 311.067 177 296.8 163C282.667 148.867 275.6 131.533 275.6 111C275.6 90.4667 282.667 73.2 296.8 59.2C311.067 45.0667 328.467 38 349 38C369.533 38 386.867 45.0667 401 59.2C415.267 73.2 422.4 90.4667 422.4 111ZM349 149C350.467 149 352.4 148.867 354.8 148.6L336 128.4L361.2 106.4L382.6 129.2C385.4 123.6 386.8 117.533 386.8 111C386.8 99.9333 383.2 90.8667 376 83.8C368.8 76.6 359.8 73 349 73C338.2 73 329.2 76.6 322 83.8C314.8 90.8667 311.2 99.9333 311.2 111C311.2 122.067 314.8 131.2 322 138.4C329.2 145.467 338.2 149 349 149ZM498.961 81H532.161V181H498.961V171C492.961 179.533 483.694 183.8 471.161 183.8C460.361 183.8 451.494 180.133 444.561 172.8C437.761 165.333 434.361 154.667 434.361 140.8V81H467.561V136.6C467.561 141.8 468.894 145.733 471.561 148.4C474.361 151.067 478.028 152.4 482.561 152.4C487.761 152.4 491.761 150.867 494.561 147.8C497.494 144.6 498.961 140.067 498.961 134.2V81ZM617.786 81H650.986V181H617.786V171.8C610.986 179.8 601.519 183.8 589.386 183.8C576.053 183.8 564.853 178.8 555.786 168.8C546.853 158.667 542.386 146.067 542.386 131C542.386 115.933 546.853 103.4 555.786 93.4C564.853 83.2667 576.053 78.2 589.386 78.2C601.519 78.2 610.986 82.2 617.786 90.2V81ZM581.586 146.8C585.453 150.8 590.519 152.8 596.786 152.8C603.053 152.8 608.119 150.8 611.986 146.8C615.853 142.8 617.786 137.533 617.786 131C617.786 124.467 615.853 119.2 611.986 115.2C608.119 111.2 603.053 109.2 596.786 109.2C590.519 109.2 585.453 111.2 581.586 115.2C577.719 119.2 575.786 124.467 575.786 131C575.786 137.533 577.719 142.8 581.586 146.8ZM666.233 181V35H699.433V181H666.233ZM744.577 67.2C740.843 70.9333 736.377 72.8 731.177 72.8C725.977 72.8 721.443 70.9333 717.577 67.2C713.843 63.3333 711.977 58.8 711.977 53.6C711.977 48.4 713.843 43.9333 717.577 40.2C721.443 36.4667 725.977 34.6 731.177 34.6C736.377 34.6 740.843 36.4667 744.577 40.2C748.443 43.9333 750.377 48.4 750.377 53.6C750.377 58.8 748.443 63.3333 744.577 67.2ZM714.577 181V81H747.777V181H714.577ZM860.32 41V75.6H825.72V181H789.92V75.6H755.32V41H860.32ZM899.513 183.8C884.713 183.8 872.113 178.733 861.713 168.6C851.313 158.333 846.113 145.8 846.113 131C846.113 116.2 851.313 103.733 861.713 93.6C872.113 83.3333 884.713 78.2 899.513 78.2C914.446 78.2 927.046 83.3333 937.313 93.6C947.713 103.733 952.913 116.2 952.913 131C952.913 145.8 947.713 158.333 937.313 168.6C927.046 178.733 914.446 183.8 899.513 183.8ZM899.513 151.8C905.379 151.8 910.179 149.867 913.913 146C917.779 142.133 919.713 137.133 919.713 131C919.713 124.867 917.779 119.867 913.913 116C910.179 112.133 905.379 110.2 899.513 110.2C893.779 110.2 888.979 112.133 885.113 116C881.379 119.867 879.513 124.867 879.513 131C879.513 137.133 881.379 142.133 885.113 146C888.979 149.867 893.779 151.8 899.513 151.8ZM996.714 99.6C998.581 93.0667 1002.31 88 1007.91 84.4C1013.51 80.8 1019.78 79 1026.71 79V115.8C1019.11 114.6 1012.18 116 1005.91 120C999.781 124 996.714 130.533 996.714 139.6V181H963.514V81H996.714V99.6Z" fill="#1E1E1E"/>
<path d="M132.094 210.187L145.823 223.877L146.802 223.716L132.094 210.187ZM131.09 210.334L144.82 224.024L145.823 223.877L131.09 210.334ZM130.062 210.468L143.792 224.157L144.82 224.024L130.062 210.468ZM129.009 210.587L142.74 224.276L143.792 224.157L129.009 210.587ZM127.932 210.692L141.663 224.382L142.74 224.276L127.932 210.692ZM126.83 210.783L140.562 224.473L141.663 224.382L126.83 210.783ZM125.703 210.86L139.436 224.55L140.562 224.473L125.703 210.86ZM124.552 210.923L138.286 224.613L139.436 224.55L124.552 210.923ZM123.377 210.972L137.111 224.662L138.286 224.613L123.377 210.972ZM122.177 211.007L135.912 224.697L137.111 224.662L122.177 211.007ZM120.952 211.028L134.688 224.718L135.912 224.697L120.952 211.028ZM119.703 211.035L133.439 224.725L134.688 224.718L119.703 211.035ZM115.527 210.953L129.266 224.642L133.439 224.725L115.527 210.953ZM111.407 210.706L125.148 224.396L129.266 224.642L111.407 210.706ZM107.342 210.294L121.086 223.984L125.148 224.396L107.342 210.294ZM103.334 209.718L117.08 223.408L121.086 223.984L103.334 209.718ZM99.3821 208.977L113.13 222.667L117.08 223.408L99.3821 208.977ZM95.4861 208.071L109.236 221.762L113.13 222.667L95.4861 208.071ZM91.6461 207.001L105.399 220.693L109.236 221.762L91.6461 207.001ZM87.8621 205.766L101.617 219.458L105.399 220.693L87.8621 205.766ZM84.1342 204.366L97.8911 218.059L101.617 219.458L84.1342 204.366ZM80.4624 202.802L94.2214 216.496L97.8911 218.059L80.4624 202.802ZM76.8467 201.073L90.6077 214.768L94.2214 216.496L76.8467 201.073ZM73.2869 199.179L87.0501 212.875L90.6077 214.768L73.2869 199.179ZM69.8569 197.14L83.622 210.837L87.0501 212.875L69.8569 197.14ZM66.5459 194.974L80.313 208.673L83.622 210.837L66.5459 194.974ZM63.3541 192.683L77.123 206.383L80.313 208.673L63.3541 192.683ZM60.2814 190.266L74.0521 203.967L77.123 206.383L60.2814 190.266ZM57.3278 187.722L71.1002 201.425L74.0521 203.967L57.3278 187.722ZM54.4934 185.052L68.2674 198.757L71.1002 201.425L54.4934 185.052ZM187.29 56.2107L200.987 69.9901L198.296 67.215L187.29 56.2107ZM189.86 59.1169L203.556 72.8947L200.987 69.9901L189.86 59.1169ZM192.308 62.1529L206.002 75.9288L203.556 72.8947L192.308 62.1529ZM194.632 65.3184L208.325 79.0925L206.002 75.9288L194.632 65.3184ZM196.834 68.6136L210.526 82.3858L208.325 79.0925L196.834 68.6136ZM198.914 72.0384L212.604 85.8086L210.526 82.3858L198.914 72.0384ZM200.888 75.5648L214.577 89.333L212.604 85.8086L200.888 75.5648ZM202.691 79.1648L216.379 92.9309L214.577 89.333L202.691 79.1648ZM204.322 82.8384L218.009 96.6023L216.379 92.9309L204.322 82.8384ZM205.781 86.5856L219.467 100.347L218.009 96.6023L205.781 86.5856ZM207.069 90.4063L220.754 104.166L219.467 100.347L207.069 90.4063ZM208.184 94.3006L221.869 108.058L220.754 104.166L208.184 94.3006ZM209.129 98.2685L222.813 112.023L221.869 108.058L209.129 98.2685ZM209.901 102.31L223.585 116.063L222.813 112.023L209.901 102.31ZM210.502 106.425L224.186 120.175L223.585 116.063L210.502 106.425ZM210.931 110.614L224.615 124.361L224.186 120.175L210.931 110.614ZM211.189 114.876L224.872 128.621L224.615 124.361L211.189 114.876ZM211.275 119.212L224.958 132.954L224.872 128.621L211.275 119.212ZM211.217 122.762L224.9 136.503L224.958 132.954L211.217 122.762ZM211.043 126.268L224.727 140.007L224.9 136.503L211.043 126.268ZM210.754 129.728L224.438 143.464L224.727 140.007L210.754 129.728ZM210.35 133.142L224.033 146.877L224.438 143.464L210.35 133.142ZM209.829 136.511L223.513 150.244L224.033 146.877L209.829 136.511ZM209.194 139.834L222.878 153.565L223.513 150.244L209.194 139.834ZM208.442 143.112L222.127 156.841L222.878 153.565L208.442 143.112ZM207.575 146.344L221.26 160.071L222.127 156.841L207.575 146.344ZM206.592 149.53L220.278 163.256L221.26 160.071L206.592 149.53ZM205.494 152.671L219.18 166.395L220.278 163.256L205.494 152.671ZM204.28 155.767L217.967 169.488L219.18 166.395L204.28 155.767ZM202.95 158.817L216.638 172.537L217.967 169.488L202.95 158.817ZM201.519 161.765L215.207 175.483L216.638 172.537L201.519 161.765ZM200 164.64L213.689 178.356L215.207 175.483L200 164.64ZM198.394 167.441L212.084 181.156L213.689 178.356L198.394 167.441ZM196.699 170.169L210.391 183.882L212.084 181.156L196.699 170.169ZM194.918 172.823L208.61 186.534L210.391 183.882L194.918 172.823ZM193.049 175.403L206.742 189.113L208.61 186.534L193.049 175.403ZM191.092 177.91L204.787 191.619L206.742 189.113L191.092 177.91ZM189.048 180.343L202.743 194.051L204.787 191.619L189.048 180.343ZM186.916 182.703L200.613 196.409L202.743 194.051L186.916 182.703ZM184.696 184.989L198.394 198.694L200.613 196.409L184.696 184.989ZM182.389 187.202L196.089 200.905L198.394 198.694L182.389 187.202ZM179.994 189.341L193.695 203.043L196.089 200.905L179.994 189.341ZM216.32 238.28L230 251.953L193.695 203.043L216.32 238.28ZM150.227 238.28C159.012 247.036 170.911 251.953 183.315 251.953H230L150.227 238.28ZM84.891 125.063L98.6474 138.802L98.4583 135.929L84.891 125.063ZM85.2064 127.836L98.9625 141.574L98.6474 138.802L85.2064 127.836ZM85.6478 130.507L99.4038 144.244L98.9625 141.574L85.6478 130.507ZM86.2154 133.077L99.971 146.812L99.4038 144.244L86.2154 133.077ZM86.9091 135.546L100.664 149.279L99.971 146.812L86.9091 135.546ZM87.729 137.912L101.484 151.644L100.664 149.279L87.729 137.912ZM88.675 140.177L102.429 153.908L101.484 151.644L88.675 140.177ZM89.7471 142.341L103.501 156.07L102.429 153.908L89.7471 142.341ZM90.9454 144.403L104.698 158.131L103.501 156.07L90.9454 144.403ZM92.2697 146.363L106.022 160.09L104.698 158.131L92.2697 146.363ZM93.7202 148.222L107.471 161.948L106.022 160.09L93.7202 148.222ZM95.2881 149.914L109.038 163.639L107.471 161.948L95.2881 149.914ZM142.197 86.8869L155.92 100.648L157.59 102.229L142.197 86.8869ZM140.42 85.4556L154.144 99.218L155.92 100.648L140.42 85.4556ZM138.539 84.175L152.264 97.9382L154.144 99.218L138.539 84.175ZM136.552 83.0451L150.279 96.8089L152.264 97.9382L136.552 83.0451ZM134.461 82.0658L148.188 95.8302L150.279 96.8089L134.461 82.0658ZM132.264 81.2372L145.993 95.0021L148.188 95.8302L132.264 81.2372ZM129.962 80.5593L143.692 94.3245L145.993 95.0021L129.962 80.5593ZM127.555 80.032L141.287 93.7975L143.692 94.3245L127.555 80.032ZM125.043 79.6553L138.776 93.4211L141.287 93.7975L125.043 79.6553ZM122.426 79.4293L136.16 93.1953L138.776 93.4211L122.426 79.4293ZM119.703 79.354L133.439 93.12L136.16 93.1953L119.703 79.354ZM116.941 79.4293L130.678 93.1953L133.439 93.12L116.941 79.4293ZM114.287 79.6553L128.026 93.4211L130.678 93.1953L114.287 79.6553ZM111.741 80.032L125.482 93.7975L128.026 93.4211L111.741 80.032ZM109.304 80.5593L123.047 94.3245L125.482 93.7975L109.304 80.5593ZM106.976 81.2372L120.72 95.0021L123.047 94.3245L106.976 81.2372ZM104.757 82.0658L118.502 95.8302L120.72 95.0021L104.757 82.0658ZM102.646 83.0451L116.392 96.8089L118.502 95.8302L102.646 83.0451ZM100.643 84.175L114.391 97.9382L116.392 96.8089L100.643 84.175ZM98.7497 85.4556L112.498 99.218L114.391 97.9382L98.7497 85.4556ZM96.9646 86.8869L110.714 100.648L112.498 99.218L96.9646 86.8869ZM95.2881 88.4688L109.038 102.229L110.714 100.648L95.2881 88.4688ZM93.7202 90.2013L107.471 103.961L109.038 102.229L93.7202 90.2013ZM92.2697 92.0215L106.022 105.78L107.471 103.961L92.2697 92.0215ZM90.9454 93.9502L104.698 107.708L106.022 105.78L90.9454 93.9502ZM89.7471 95.9876L103.501 109.744L104.698 107.708L89.7471 95.9876ZM88.675 98.1336L102.429 111.889L103.501 109.744L88.675 98.1336ZM87.729 100.388L101.484 114.142L102.429 111.889L87.729 100.388ZM86.9091 102.751L100.664 116.504L101.484 114.142L86.9091 102.751ZM86.2154 105.223L99.971 118.974L100.664 116.504L86.2154 105.223ZM85.6478 107.804L99.4038 121.553L99.971 118.974L85.6478 107.804ZM85.2064 110.493L98.9625 124.241L99.4038 121.553L85.2064 110.493ZM84.891 113.29L98.6474 127.037L98.9625 124.241L84.891 113.29ZM84.7018 116.197L98.4583 129.941L98.6474 127.037L84.7018 116.197ZM84.6388 119.212L98.3953 132.954L98.4583 129.941L84.6388 119.212ZM84.7018 122.188L98.4583 135.929L98.3953 132.954L84.7018 122.188ZM133.073 210.026L132.094 210.187L146.802 223.716L133.073 210.026ZM132.094 210.187L131.09 210.334L145.823 223.877L132.094 210.187ZM131.09 210.334L130.062 210.468L144.82 224.024L131.09 210.334ZM130.062 210.468L129.009 210.587L143.792 224.157L130.062 210.468ZM129.009 210.587L127.932 210.692L142.74 224.276L129.009 210.587ZM127.932 210.692L126.83 210.783L141.663 224.382L127.932 210.692ZM126.83 210.783L125.703 210.86L140.562 224.473L126.83 210.783ZM125.703 210.86L124.552 210.923L139.436 224.55L125.703 210.86ZM124.552 210.923L123.377 210.972L138.286 224.613L124.552 210.923ZM123.377 210.972L122.177 211.007L137.111 224.662L123.377 210.972ZM122.177 211.007L120.952 211.028L135.912 224.697L122.177 211.007ZM120.952 211.028L119.703 211.035L134.688 224.718L120.952 211.028ZM119.703 211.035L115.527 210.953L133.439 224.725L119.703 211.035ZM115.527 210.953L111.407 210.706L129.266 224.642L115.527 210.953ZM111.407 210.706L107.342 210.294L125.148 224.396L111.407 210.706ZM107.342 210.294L103.334 209.718L121.086 223.984L107.342 210.294ZM103.334 209.718L99.3821 208.977L117.08 223.408L103.334 209.718ZM99.3821 208.977L95.4861 208.071L113.13 222.667L99.3821 208.977ZM95.4861 208.071L91.6461 207.001L109.236 221.762L95.4861 208.071ZM91.6461 207.001L87.8621 205.766L105.399 220.693L91.6461 207.001ZM87.8621 205.766L84.1342 204.366L101.617 219.458L87.8621 205.766ZM84.1342 204.366L80.4624 202.802L97.8911 218.059L84.1342 204.366ZM80.4624 202.802L76.8467 201.073L94.2214 216.496L80.4624 202.802ZM76.8467 201.073L73.2869 199.179L90.6077 214.768L76.8467 201.073ZM73.2869 199.179L69.8569 197.14L87.0501 212.875L73.2869 199.179ZM69.8569 197.14L66.5459 194.974L83.622 210.837L69.8569 197.14ZM66.5459 194.974L63.3541 192.683L80.313 208.673L66.5459 194.974ZM63.3541 192.683L60.2814 190.266L77.123 206.383L63.3541 192.683ZM60.2814 190.266L57.3278 187.722L74.0521 203.967L60.2814 190.266ZM57.3278 187.722L54.4934 185.052L71.1002 201.425L57.3278 187.722ZM184.598 53.434L187.29 56.2107L198.296 67.215L184.598 53.434ZM187.29 56.2107L189.86 59.1169L200.987 69.9901L187.29 56.2107ZM189.86 59.1169L192.308 62.1529L203.556 72.8947L189.86 59.1169ZM192.308 62.1529L194.632 65.3184L206.002 75.9288L192.308 62.1529ZM194.632 65.3184L196.834 68.6136L208.325 79.0925L194.632 65.3184ZM196.834 68.6136L198.914 72.0384L210.526 82.3858L196.834 68.6136ZM198.914 72.0384L200.888 75.5648L212.604 85.8086L198.914 72.0384ZM200.888 75.5648L202.691 79.1648L214.577 89.333L200.888 75.5648ZM202.691 79.1648L204.322 82.8384L216.379 92.9309L202.691 79.1648ZM204.322 82.8384L205.781 86.5856L218.009 96.6023L204.322 82.8384ZM205.781 86.5856L207.069 90.4063L219.467 100.347L205.781 86.5856ZM207.069 90.4063L208.184 94.3006L220.754 104.166L207.069 90.4063ZM208.184 94.3006L209.129 98.2685L221.869 108.058L208.184 94.3006ZM209.129 98.2685L209.901 102.31L222.813 112.023L209.129 98.2685ZM209.901 102.31L210.502 106.425L223.585 116.063L209.901 102.31ZM210.502 106.425L210.931 110.614L224.186 120.175L210.502 106.425ZM210.931 110.614L211.189 114.876L224.615 124.361L210.931 110.614ZM211.189 114.876L211.275 119.212L224.872 128.621L211.189 114.876ZM211.275 119.212L211.217 122.762L224.958 132.954L211.275 119.212ZM211.217 122.762L211.043 126.268L224.9 136.503L211.217 122.762ZM211.043 126.268L210.754 129.728L224.727 140.007L211.043 126.268ZM210.754 129.728L210.35 133.142L224.438 143.464L210.754 129.728ZM210.35 133.142L209.829 136.511L224.033 146.877L210.35 133.142ZM209.829 136.511L209.194 139.834L223.513 150.244L209.829 136.511ZM209.194 139.834L208.442 143.112L222.878 153.565L209.194 139.834ZM208.442 143.112L207.575 146.344L222.127 156.841L208.442 143.112ZM207.575 146.344L206.592 149.53L221.26 160.071L207.575 146.344ZM206.592 149.53L205.494 152.671L220.278 163.256L206.592 149.53ZM205.494 152.671L204.28 155.767L219.18 166.395L205.494 152.671ZM204.28 155.767L202.95 158.817L217.967 169.488L204.28 155.767ZM202.95 158.817L201.519 161.765L216.638 172.537L202.95 158.817ZM201.519 161.765L200 164.64L215.207 175.483L201.519 161.765ZM200 164.64L198.394 167.441L213.689 178.356L200 164.64ZM198.394 167.441L196.699 170.169L212.084 181.156L198.394 167.441ZM196.699 170.169L194.918 172.823L210.391 183.882L196.699 170.169ZM194.918 172.823L193.049 175.403L208.61 186.534L194.918 172.823ZM193.049 175.403L191.092 177.91L206.742 189.113L193.049 175.403ZM191.092 177.91L189.048 180.343L204.787 191.619L191.092 177.91ZM189.048 180.343L186.916 182.703L202.743 194.051L189.048 180.343ZM186.916 182.703L184.696 184.989L200.613 196.409L186.916 182.703ZM184.696 184.989L182.389 187.202L198.394 198.694L184.696 184.989ZM182.389 187.202L179.994 189.341L196.089 200.905L182.389 187.202ZM179.994 189.341L216.32 238.28L193.695 203.043L179.994 189.341ZM216.32 238.28H150.227L230 251.953L216.32 238.28ZM84.7018 122.188L84.891 125.063L98.4583 135.929L84.7018 122.188ZM84.891 125.063L85.2064 127.836L98.6474 138.802L84.891 125.063ZM85.2064 127.836L85.6478 130.507L98.9625 141.574L85.2064 127.836ZM85.6478 130.507L86.2154 133.077L99.4038 144.244L85.6478 130.507ZM86.2154 133.077L86.9091 135.546L99.971 146.812L86.2154 133.077ZM86.9091 135.546L87.729 137.912L100.664 149.279L86.9091 135.546ZM87.729 137.912L88.675 140.177L101.484 151.644L87.729 137.912ZM88.675 140.177L89.7471 142.341L102.429 153.908L88.675 140.177ZM89.7471 142.341L90.9454 144.403L103.501 156.07L89.7471 142.341ZM90.9454 144.403L92.2697 146.363L104.698 158.131L90.9454 144.403ZM92.2697 146.363L93.7202 148.222L106.022 160.09L92.2697 146.363ZM93.7202 148.222L95.2881 149.914L107.471 161.948L93.7202 148.222ZM143.868 88.4688L142.197 86.8869L157.59 102.229L143.868 88.4688ZM142.197 86.8869L140.42 85.4556L155.92 100.648L142.197 86.8869ZM140.42 85.4556L138.539 84.175L154.144 99.218L140.42 85.4556ZM138.539 84.175L136.552 83.0451L152.264 97.9382L138.539 84.175ZM136.552 83.0451L134.461 82.0658L150.279 96.8089L136.552 83.0451ZM134.461 82.0658L132.264 81.2372L148.188 95.8302L134.461 82.0658ZM132.264 81.2372L129.962 80.5593L145.993 95.0021L132.264 81.2372ZM129.962 80.5593L127.555 80.032L143.692 94.3245L129.962 80.5593ZM127.555 80.032L125.043 79.6553L141.287 93.7975L127.555 80.032ZM125.043 79.6553L122.426 79.4293L138.776 93.4211L125.043 79.6553ZM122.426 79.4293L119.703 79.354L136.16 93.1953L122.426 79.4293ZM119.703 79.354L116.941 79.4293L133.439 93.12L119.703 79.354ZM116.941 79.4293L114.287 79.6553L130.678 93.1953L116.941 79.4293ZM114.287 79.6553L111.741 80.032L128.026 93.4211L114.287 79.6553ZM111.741 80.032L109.304 80.5593L125.482 93.7975L111.741 80.032ZM109.304 80.5593L106.976 81.2372L123.047 94.3245L109.304 80.5593ZM106.976 81.2372L104.757 82.0658L120.72 95.0021L106.976 81.2372ZM104.757 82.0658L102.646 83.0451L118.502 95.8302L104.757 82.0658ZM102.646 83.0451L100.643 84.175L116.392 96.8089L102.646 83.0451ZM100.643 84.175L98.7497 85.4556L114.391 97.9382L100.643 84.175ZM98.7497 85.4556L96.9646 86.8869L112.498 99.218L98.7497 85.4556ZM96.9646 86.8869L95.2881 88.4688L110.714 100.648L96.9646 86.8869ZM95.2881 88.4688L93.7202 90.2013L109.038 102.229L95.2881 88.4688ZM93.7202 90.2013L92.2697 92.0215L107.471 103.961L93.7202 90.2013ZM92.2697 92.0215L90.9454 93.9502L106.022 105.78L92.2697 92.0215ZM90.9454 93.9502L89.7471 95.9876L104.698 107.708L90.9454 93.9502ZM89.7471 95.9876L88.675 98.1336L103.501 109.744L89.7471 95.9876ZM88.675 98.1336L87.729 100.388L102.429 111.889L88.675 98.1336ZM87.729 100.388L86.9091 102.751L101.484 114.142L87.729 100.388ZM86.9091 102.751L86.2154 105.223L100.664 116.504L86.9091 102.751ZM86.2154 105.223L85.6478 107.804L99.971 118.974L86.2154 105.223ZM85.6478 107.804L85.2064 110.493L99.4038 121.553L85.6478 107.804ZM85.2064 110.493L84.891 113.29L98.9625 124.241L85.2064 110.493ZM84.891 113.29L84.7018 116.197L98.6474 127.037L84.891 113.29ZM84.7018 116.197L84.6388 119.212L98.4583 129.941L84.7018 116.197ZM84.6388 119.212L84.7018 122.188L98.3953 132.954L84.6388 119.212ZM118.349 196.481L132.094 210.187L133.073 210.026L118.349 196.481ZM117.345 196.629L131.09 210.334L132.094 210.187L117.345 196.629ZM116.316 196.762L130.062 210.468L131.09 210.334L116.316 196.762ZM115.262 196.881L129.009 210.587L130.062 210.468L115.262 196.881ZM114.184 196.986L127.932 210.692L129.009 210.587L114.184 196.986ZM113.082 197.077L126.83 210.783L127.932 210.692L113.082 197.077ZM111.955 197.155L125.703 210.86L126.83 210.783L111.955 197.155ZM110.803 197.218L124.552 210.923L125.703 210.86L110.803 197.218ZM109.627 197.267L123.377 210.972L124.552 210.923L109.627 197.267ZM108.426 197.302L122.177 211.007L123.377 210.972L108.426 197.302ZM107.201 197.323L120.952 211.028L122.177 211.007L107.201 197.323ZM105.951 197.33L119.703 211.035L120.952 211.028L105.951 197.33ZM101.772 197.247L115.527 210.953L119.703 211.035L101.772 197.247ZM97.6497 197L111.407 210.706L115.527 210.953L97.6497 197ZM93.5831 196.588L107.342 210.294L111.407 210.706L93.5831 196.588ZM89.5726 196.012L103.334 209.718L107.342 210.294L89.5726 196.012ZM85.6182 195.27L99.3821 208.977L103.334 209.718L85.6182 195.27ZM81.7199 194.364L95.4861 208.071L99.3821 208.977L81.7199 194.364ZM77.8776 193.293L91.6461 207.001L95.4861 208.071L77.8776 193.293ZM74.0915 192.057L87.8621 205.766L91.6461 207.001L74.0915 192.057ZM70.3615 190.657L84.1342 204.366L87.8621 205.766L70.3615 190.657ZM66.6875 189.091L80.4624 202.802L84.1342 204.366L66.6875 189.091ZM63.0696 187.361L76.8467 201.073L80.4624 202.802L63.0696 187.361ZM59.5078 185.467L73.2869 199.179L76.8467 201.073L59.5078 185.467ZM56.0758 183.426L69.8569 197.14L73.2869 199.179L56.0758 183.426ZM52.7629 181.26L66.5459 194.974L69.8569 197.14L52.7629 181.26ZM49.5692 178.967L63.3541 192.683L66.5459 194.974L49.5692 178.967ZM46.4947 176.548L60.2814 190.266L63.3541 192.683L46.4947 176.548ZM43.5394 174.003L57.3278 187.722L60.2814 190.266L43.5394 174.003ZM40.7033 171.332L54.4934 185.052L57.3278 187.722L40.7033 171.332ZM173.578 42.4152L187.29 56.2107L184.598 53.434L173.578 42.4152ZM176.149 45.3232L189.86 59.1169L187.29 56.2107L176.149 45.3232ZM178.598 48.3609L192.308 62.1529L189.86 59.1169L178.598 48.3609ZM180.924 51.5283L194.632 65.3184L192.308 62.1529L180.924 51.5283ZM183.127 54.8254L196.834 68.6136L194.632 65.3184L183.127 54.8254ZM185.208 58.2522L198.914 72.0384L196.834 68.6136L185.208 58.2522ZM187.183 61.7807L200.888 75.5648L198.914 72.0384L187.183 61.7807ZM188.987 65.3827L202.691 79.1648L200.888 75.5648L188.987 65.3827ZM190.619 69.0585L204.322 82.8384L202.691 79.1648L190.619 69.0585ZM192.079 72.8078L205.781 86.5856L204.322 82.8384L192.079 72.8078ZM193.367 76.6307L207.069 90.4063L205.781 86.5856L193.367 76.6307ZM194.484 80.5273L208.184 94.3006L207.069 90.4063L194.484 80.5273ZM195.429 84.4975L209.129 98.2685L208.184 94.3006L195.429 84.4975ZM196.202 88.5413L209.901 102.31L209.129 98.2685L196.202 88.5413ZM196.803 92.6587L210.502 106.425L209.901 102.31L196.803 92.6587ZM197.232 96.8498L210.931 110.614L210.502 106.425L197.232 96.8498ZM197.49 101.114L211.189 114.876L210.931 110.614L197.49 101.114ZM197.576 105.453L211.275 119.212L211.189 114.876L197.576 105.453ZM197.518 109.006L211.217 122.762L211.275 119.212L197.518 109.006ZM197.344 112.513L211.043 126.268L211.217 122.762L197.344 112.513ZM197.055 115.975L210.754 129.728L211.043 126.268L197.055 115.975ZM196.65 119.391L210.35 133.142L210.754 129.728L196.65 119.391ZM196.13 122.762L209.829 136.511L210.35 133.142L196.13 122.762ZM195.493 126.087L209.194 139.834L209.829 136.511L195.493 126.087ZM194.741 129.367L208.442 143.112L209.194 139.834L194.741 129.367ZM193.874 132.601L207.575 146.344L208.442 143.112L193.874 132.601ZM192.89 135.789L206.592 149.53L207.575 146.344L192.89 135.789ZM191.791 138.932L205.494 152.671L206.592 149.53L191.791 138.932ZM190.577 142.029L204.28 155.767L205.494 152.671L190.577 142.029ZM189.246 145.081L202.95 158.817L204.28 155.767L189.246 145.081ZM187.814 148.031L201.519 161.765L202.95 158.817L187.814 148.031ZM186.295 150.907L200 164.64L201.519 161.765L186.295 150.907ZM184.687 153.71L198.394 167.441L200 164.64L184.687 153.71ZM182.992 156.439L196.699 170.169L198.394 167.441L182.992 156.439ZM181.21 159.095L194.918 172.823L196.699 170.169L181.21 159.095ZM179.339 161.677L193.049 175.403L194.918 172.823L179.339 161.677ZM177.381 164.185L191.092 177.91L193.049 175.403L177.381 164.185ZM175.336 166.62L189.048 180.343L191.092 177.91L175.336 166.62ZM173.203 168.981L186.916 182.703L189.048 180.343L173.203 168.981ZM170.982 171.269L184.696 184.989L186.916 182.703L170.982 171.269ZM168.673 173.482L182.389 187.202L184.696 184.989L168.673 173.482ZM166.277 175.623L179.994 189.341L182.389 187.202L166.277 175.623ZM202.624 224.59L216.32 238.28L179.994 189.341L202.624 224.59ZM136.493 224.59L150.227 238.28H216.32L136.493 224.59ZM71.1187 111.307L84.891 125.063L84.7018 122.188L71.1187 111.307ZM71.4342 114.082L85.2064 127.836L84.891 125.063L71.4342 114.082ZM71.8759 116.755L85.6478 130.507L85.2064 127.836L71.8759 116.755ZM72.4438 119.327L86.2154 133.077L85.6478 130.507L72.4438 119.327ZM73.1379 121.796L86.9091 135.546L86.2154 133.077L73.1379 121.796ZM73.9583 124.164L87.729 137.912L86.9091 135.546L73.9583 124.164ZM74.9048 126.431L88.675 140.177L87.729 137.912L74.9048 126.431ZM75.9776 128.596L89.7471 142.341L88.675 140.177L75.9776 128.596ZM77.1765 130.659L90.9454 144.403L89.7471 142.341L77.1765 130.659ZM78.5017 132.62L92.2697 146.363L90.9454 144.403L78.5017 132.62ZM79.953 134.48L93.7202 148.222L92.2697 146.363L79.953 134.48ZM81.5218 136.173L95.2881 149.914L93.7202 148.222L81.5218 136.173ZM128.458 73.1093L142.197 86.8869L143.868 88.4688L128.458 73.1093ZM126.68 71.6772L140.42 85.4556L142.197 86.8869L126.68 71.6772ZM124.798 70.3959L138.539 84.175L140.42 85.4556L124.798 70.3959ZM122.81 69.2653L136.552 83.0451L138.539 84.175L122.81 69.2653ZM120.717 68.2855L134.461 82.0658L136.552 83.0451L120.717 68.2855ZM118.519 67.4564L132.264 81.2372L134.461 82.0658L118.519 67.4564ZM116.216 66.778L129.962 80.5593L132.264 81.2372L116.216 66.778ZM113.807 66.2504L127.555 80.032L129.962 80.5593L113.807 66.2504ZM111.294 65.8735L125.043 79.6553L127.555 80.032L111.294 65.8735ZM108.675 65.6474L122.426 79.4293L125.043 79.6553L108.675 65.6474ZM105.951 65.572L119.703 79.354L122.426 79.4293L105.951 65.572ZM103.187 65.6474L116.941 79.4293L119.703 79.354L103.187 65.6474ZM100.531 65.8735L114.287 79.6553L116.941 79.4293L100.531 65.8735ZM97.9845 66.2504L111.741 80.032L114.287 79.6553L97.9845 66.2504ZM95.5463 66.778L109.304 80.5593L111.741 80.032L95.5463 66.778ZM93.2168 67.4564L106.976 81.2372L109.304 80.5593L93.2168 67.4564ZM90.9959 68.2855L104.757 82.0658L106.976 81.2372L90.9959 68.2855ZM88.8837 69.2653L102.646 83.0451L104.757 82.0658L88.8837 69.2653ZM86.8802 70.3959L100.643 84.175L102.646 83.0451L86.8802 70.3959ZM84.9854 71.6772L98.7497 85.4556L100.643 84.175L84.9854 71.6772ZM83.1993 73.1093L96.9646 86.8869L98.7497 85.4556L83.1993 73.1093ZM81.5218 74.6921L95.2881 88.4688L96.9646 86.8869L81.5218 74.6921ZM79.953 76.4257L93.7202 90.2013L95.2881 88.4688L79.953 76.4257ZM78.5017 78.2469L92.2697 92.0215L93.7202 90.2013L78.5017 78.2469ZM77.1765 80.1767L90.9454 93.9502L92.2697 92.0215L77.1765 80.1767ZM75.9776 82.2153L89.7471 95.9876L90.9454 93.9502L75.9776 82.2153ZM74.9048 84.3625L88.675 98.1336L89.7471 95.9876L74.9048 84.3625ZM73.9583 86.6185L87.729 100.388L88.675 98.1336L73.9583 86.6185ZM73.1379 88.983L86.9091 102.751L87.729 100.388L73.1379 88.983ZM72.4438 91.4563L86.2154 105.223L86.9091 102.751L72.4438 91.4563ZM71.8759 94.0382L85.6478 107.804L86.2154 105.223L71.8759 94.0382ZM71.4342 96.7288L85.2064 110.493L85.6478 107.804L71.4342 96.7288ZM71.1187 99.5281L84.891 113.29L85.2064 110.493L71.1187 99.5281ZM70.9294 102.436L84.7018 116.197L84.891 113.29L70.9294 102.436ZM70.8663 105.453L84.6388 119.212L84.7018 116.197L70.8663 105.453ZM70.9294 108.431L84.7018 122.188L84.6388 119.212L70.9294 108.431ZM119.329 196.32L118.349 196.481L133.073 210.026L119.329 196.32ZM118.349 196.481L117.345 196.629L132.094 210.187L118.349 196.481ZM117.345 196.629L116.316 196.762L131.09 210.334L117.345 196.629ZM116.316 196.762L115.262 196.881L130.062 210.468L116.316 196.762ZM115.262 196.881L114.184 196.986L129.009 210.587L115.262 196.881ZM114.184 196.986L113.082 197.077L127.932 210.692L114.184 196.986ZM113.082 197.077L111.955 197.155L126.83 210.783L113.082 197.077ZM111.955 197.155L110.803 197.218L125.703 210.86L111.955 197.155ZM110.803 197.218L109.627 197.267L124.552 210.923L110.803 197.218ZM109.627 197.267L108.426 197.302L123.377 210.972L109.627 197.267ZM108.426 197.302L107.201 197.323L122.177 211.007L108.426 197.302ZM107.201 197.323L105.951 197.33L120.952 211.028L107.201 197.323ZM105.951 197.33L101.772 197.247L119.703 211.035L105.951 197.33ZM101.772 197.247L97.6497 197L115.527 210.953L101.772 197.247ZM97.6497 197L93.5831 196.588L111.407 210.706L97.6497 197ZM93.5831 196.588L89.5726 196.012L107.342 210.294L93.5831 196.588ZM89.5726 196.012L85.6182 195.27L103.334 209.718L89.5726 196.012ZM85.6182 195.27L81.7199 194.364L99.3821 208.977L85.6182 195.27ZM81.7199 194.364L77.8776 193.293L95.4861 208.071L81.7199 194.364ZM77.8776 193.293L74.0915 192.057L91.6461 207.001L77.8776 193.293ZM74.0915 192.057L70.3615 190.657L87.8621 205.766L74.0915 192.057ZM70.3615 190.657L66.6875 189.091L84.1342 204.366L70.3615 190.657ZM66.6875 189.091L63.0696 187.361L80.4624 202.802L66.6875 189.091ZM63.0696 187.361L59.5078 185.467L76.8467 201.073L63.0696 187.361ZM59.5078 185.467L56.0758 183.426L73.2869 199.179L59.5078 185.467ZM56.0758 183.426L52.7629 181.26L69.8569 197.14L56.0758 183.426ZM52.7629 181.26L49.5692 178.967L66.5459 194.974L52.7629 181.26ZM49.5692 178.967L46.4947 176.548L63.3541 192.683L49.5692 178.967ZM46.4947 176.548L43.5394 174.003L60.2814 190.266L46.4947 176.548ZM43.5394 174.003L40.7033 171.332L57.3278 187.722L43.5394 174.003ZM170.884 39.637L173.578 42.4152L184.598 53.434L170.884 39.637ZM173.578 42.4152L176.149 45.3232L187.29 56.2107L173.578 42.4152ZM176.149 45.3232L178.598 48.3609L189.86 59.1169L176.149 45.3232ZM178.598 48.3609L180.924 51.5283L192.308 62.1529L178.598 48.3609ZM180.924 51.5283L183.127 54.8254L194.632 65.3184L180.924 51.5283ZM183.127 54.8254L185.208 58.2522L196.834 68.6136L183.127 54.8254ZM185.208 58.2522L187.183 61.7807L198.914 72.0384L185.208 58.2522ZM187.183 61.7807L188.987 65.3827L200.888 75.5648L187.183 61.7807ZM188.987 65.3827L190.619 69.0585L202.691 79.1648L188.987 65.3827ZM190.619 69.0585L192.079 72.8078L204.322 82.8384L190.619 69.0585ZM192.079 72.8078L193.367 76.6307L205.781 86.5856L192.079 72.8078ZM193.367 76.6307L194.484 80.5273L207.069 90.4063L193.367 76.6307ZM194.484 80.5273L195.429 84.4975L208.184 94.3006L194.484 80.5273ZM195.429 84.4975L196.202 88.5413L209.129 98.2685L195.429 84.4975ZM196.202 88.5413L196.803 92.6587L209.901 102.31L196.202 88.5413ZM196.803 92.6587L197.232 96.8498L210.502 106.425L196.803 92.6587ZM197.232 96.8498L197.49 101.114L210.931 110.614L197.232 96.8498ZM197.49 101.114L197.576 105.453L211.189 114.876L197.49 101.114ZM197.576 105.453L197.518 109.006L211.275 119.212L197.576 105.453ZM197.518 109.006L197.344 112.513L211.217 122.762L197.518 109.006ZM197.344 112.513L197.055 115.975L211.043 126.268L197.344 112.513ZM197.055 115.975L196.65 119.391L210.754 129.728L197.055 115.975ZM196.65 119.391L196.13 122.762L210.35 133.142L196.65 119.391ZM196.13 122.762L195.493 126.087L209.829 136.511L196.13 122.762ZM195.493 126.087L194.741 129.367L209.194 139.834L195.493 126.087ZM194.741 129.367L193.874 132.601L208.442 143.112L194.741 129.367ZM193.874 132.601L192.89 135.789L207.575 146.344L193.874 132.601ZM192.89 135.789L191.791 138.932L206.592 149.53L192.89 135.789ZM191.791 138.932L190.577 142.029L205.494 152.671L191.791 138.932ZM190.577 142.029L189.246 145.081L204.28 155.767L190.577 142.029ZM189.246 145.081L187.814 148.031L202.95 158.817L189.246 145.081ZM187.814 148.031L186.295 150.907L201.519 161.765L187.814 148.031ZM186.295 150.907L184.687 153.71L200 164.64L186.295 150.907ZM184.687 153.71L182.992 156.439L198.394 167.441L184.687 153.71ZM182.992 156.439L181.21 159.095L196.699 170.169L182.992 156.439ZM181.21 159.095L179.339 161.677L194.918 172.823L181.21 159.095ZM179.339 161.677L177.381 164.185L193.049 175.403L179.339 161.677ZM177.381 164.185L175.336 166.62L191.092 177.91L177.381 164.185ZM175.336 166.62L173.203 168.981L189.048 180.343L175.336 166.62ZM173.203 168.981L170.982 171.269L186.916 182.703L173.203 168.981ZM170.982 171.269L168.673 173.482L184.696 184.989L170.982 171.269ZM168.673 173.482L166.277 175.623L182.389 187.202L168.673 173.482ZM166.277 175.623L202.624 224.59L179.994 189.341L166.277 175.623ZM202.624 224.59H136.493L216.32 238.28L202.624 224.59ZM70.9294 108.431L71.1187 111.307L84.7018 122.188L70.9294 108.431ZM71.1187 111.307L71.4342 114.082L84.891 125.063L71.1187 111.307ZM71.4342 114.082L71.8759 116.755L85.2064 127.836L71.4342 114.082ZM71.8759 116.755L72.4438 119.327L85.6478 130.507L71.8759 116.755ZM72.4438 119.327L73.1379 121.796L86.2154 133.077L72.4438 119.327ZM73.1379 121.796L73.9583 124.164L86.9091 135.546L73.1379 121.796ZM73.9583 124.164L74.9048 126.431L87.729 137.912L73.9583 124.164ZM74.9048 126.431L75.9776 128.596L88.675 140.177L74.9048 126.431ZM75.9776 128.596L77.1765 130.659L89.7471 142.341L75.9776 128.596ZM77.1765 130.659L78.5017 132.62L90.9454 144.403L77.1765 130.659ZM78.5017 132.62L79.953 134.48L92.2697 146.363L78.5017 132.62ZM79.953 134.48L81.5218 136.173L93.7202 148.222L79.953 134.48ZM130.13 74.6921L128.458 73.1093L143.868 88.4688L130.13 74.6921ZM128.458 73.1093L126.68 71.6772L142.197 86.8869L128.458 73.1093ZM126.68 71.6772L124.798 70.3959L140.42 85.4556L126.68 71.6772ZM124.798 70.3959L122.81 69.2653L138.539 84.175L124.798 70.3959ZM122.81 69.2653L120.717 68.2855L136.552 83.0451L122.81 69.2653ZM120.717 68.2855L118.519 67.4564L134.461 82.0658L120.717 68.2855ZM118.519 67.4564L116.216 66.778L132.264 81.2372L118.519 67.4564ZM116.216 66.778L113.807 66.2504L129.962 80.5593L116.216 66.778ZM113.807 66.2504L111.294 65.8735L127.555 80.032L113.807 66.2504ZM111.294 65.8735L108.675 65.6474L125.043 79.6553L111.294 65.8735ZM108.675 65.6474L105.951 65.572L122.426 79.4293L108.675 65.6474ZM105.951 65.572L103.187 65.6474L119.703 79.354L105.951 65.572ZM103.187 65.6474L100.531 65.8735L116.941 79.4293L103.187 65.6474ZM100.531 65.8735L97.9845 66.2504L114.287 79.6553L100.531 65.8735ZM97.9845 66.2504L95.5463 66.778L111.741 80.032L97.9845 66.2504ZM95.5463 66.778L93.2168 67.4564L109.304 80.5593L95.5463 66.778ZM93.2168 67.4564L90.9959 68.2855L106.976 81.2372L93.2168 67.4564ZM90.9959 68.2855L88.8837 69.2653L104.757 82.0658L90.9959 68.2855ZM88.8837 69.2653L86.8802 70.3959L102.646 83.0451L88.8837 69.2653ZM86.8802 70.3959L84.9854 71.6772L100.643 84.175L86.8802 70.3959ZM84.9854 71.6772L83.1993 73.1093L98.7497 85.4556L84.9854 71.6772ZM83.1993 73.1093L81.5218 74.6921L96.9646 86.8869L83.1993 73.1093ZM81.5218 74.6921L79.953 76.4257L95.2881 88.4688L81.5218 74.6921ZM79.953 76.4257L78.5017 78.2469L93.7202 90.2013L79.953 76.4257ZM78.5017 78.2469L77.1765 80.1767L92.2697 92.0215L78.5017 78.2469ZM77.1765 80.1767L75.9776 82.2153L90.9454 93.9502L77.1765 80.1767ZM75.9776 82.2153L74.9048 84.3625L89.7471 95.9876L75.9776 82.2153ZM74.9048 84.3625L73.9583 86.6185L88.675 98.1336L74.9048 84.3625ZM73.9583 86.6185L73.1379 88.983L87.729 100.388L73.9583 86.6185ZM73.1379 88.983L72.4438 91.4563L86.9091 102.751L73.1379 88.983ZM72.4438 91.4563L71.8759 94.0382L86.2154 105.223L72.4438 91.4563ZM71.8759 94.0382L71.4342 96.7288L85.6478 107.804L71.8759 94.0382ZM71.4342 96.7288L71.1187 99.5281L85.2064 110.493L71.4342 96.7288ZM71.1187 99.5281L70.9294 102.436L84.891 113.29L71.1187 99.5281ZM70.9294 102.436L70.8663 105.453L84.7018 116.197L70.9294 102.436ZM70.8663 105.453L70.9294 108.431L84.6388 119.212L70.8663 105.453ZM104.588 182.76L118.349 196.481L119.329 196.32L104.588 182.76ZM103.583 182.907L117.345 196.629L118.349 196.481L103.583 182.907ZM102.554 183.04L116.316 196.762L117.345 196.629L102.554 183.04ZM101.5 183.159L115.262 196.881L116.316 196.762L101.5 183.159ZM100.421 183.265L114.184 196.986L115.262 196.881L100.421 183.265ZM99.3178 183.356L113.082 197.077L114.184 196.986L99.3178 183.356ZM98.19 183.433L111.955 197.155L113.082 197.077L98.19 183.433ZM97.0378 183.496L110.803 197.218L111.955 197.155L97.0378 183.496ZM95.8609 183.545L109.627 197.267L110.803 197.218L95.8609 183.545ZM94.6595 183.58L108.426 197.302L109.627 197.267L94.6595 183.58ZM93.4336 183.601L107.201 197.323L108.426 197.302L93.4336 183.601ZM92.1831 183.608L105.951 197.33L107.201 197.323L92.1831 183.608ZM88.0019 183.526L101.772 197.247L105.951 197.33L88.0019 183.526ZM83.8768 183.279L97.6497 197L101.772 197.247L83.8768 183.279ZM79.8078 182.867L93.5831 196.588L97.6497 197L79.8078 182.867ZM75.795 182.29L89.5726 196.012L93.5831 196.588L75.795 182.29ZM71.8382 181.548L85.6182 195.27L89.5726 196.012L71.8382 181.548ZM67.9377 180.641L81.7199 194.364L85.6182 195.27L67.9377 180.641ZM64.0932 179.569L77.8776 193.293L81.7199 194.364L64.0932 179.569ZM60.3048 178.333L74.0915 192.057L77.8776 193.293L60.3048 178.333ZM56.5726 176.931L70.3615 190.657L74.0915 192.057L56.5726 176.931ZM52.8965 175.365L66.6875 189.091L70.3615 190.657L52.8965 175.365ZM49.2766 173.634L63.0696 187.361L66.6875 189.091L49.2766 173.634ZM45.7127 171.738L59.5078 185.467L63.0696 187.361L45.7127 171.738ZM42.2786 169.697L56.0758 183.426L59.5078 185.467L42.2786 169.697ZM38.9638 167.529L52.7629 181.26L56.0758 183.426L38.9638 167.529ZM35.7683 165.235L49.5692 178.967L52.7629 181.26L35.7683 165.235ZM32.692 162.815L46.4947 176.548L49.5692 178.967L32.692 162.815ZM29.735 160.268L43.5394 174.003L46.4947 176.548L29.735 160.268ZM26.8973 157.595L40.7033 171.332L43.5394 174.003L26.8973 157.595ZM159.849 28.6038L173.578 42.4152L170.884 39.637L159.849 28.6038ZM162.422 31.5134L176.149 45.3232L173.578 42.4152L162.422 31.5134ZM164.872 34.5529L178.598 48.3609L176.149 45.3232L164.872 34.5529ZM167.199 37.7221L180.924 51.5283L178.598 48.3609L167.199 37.7221ZM169.404 41.0211L183.127 54.8254L180.924 51.5283L169.404 41.0211ZM171.486 44.4499L185.208 58.2522L183.127 54.8254L171.486 44.4499ZM173.462 47.9804L187.183 61.7807L185.208 58.2522L173.462 47.9804ZM175.267 51.5846L188.987 65.3827L187.183 61.7807L175.267 51.5846ZM176.9 55.2625L190.619 69.0585L188.987 65.3827L176.9 55.2625ZM178.361 59.014L192.079 72.8078L190.619 69.0585L178.361 59.014ZM179.65 62.8392L193.367 76.6307L192.079 72.8078L179.65 62.8392ZM180.767 66.738L194.484 80.5273L193.367 76.6307L180.767 66.738ZM181.713 70.7105L195.429 84.4975L194.484 80.5273L181.713 70.7105ZM182.486 74.7567L196.202 88.5413L195.429 84.4975L182.486 74.7567ZM183.088 78.8765L196.803 92.6587L196.202 88.5413L183.088 78.8765ZM183.517 83.07L197.232 96.8498L196.803 92.6587L183.517 83.07ZM183.775 87.3371L197.49 101.114L197.232 96.8498L183.775 87.3371ZM183.861 91.6779L197.576 105.453L197.49 101.114L183.861 91.6779ZM183.803 95.233L197.518 109.006L197.576 105.453L183.803 95.233ZM183.63 98.7425L197.344 112.513L197.518 109.006L183.63 98.7425ZM183.34 102.206L197.055 115.975L197.344 112.513L183.34 102.206ZM182.935 105.625L196.65 119.391L197.055 115.975L182.935 105.625ZM182.414 108.997L196.13 122.762L196.65 119.391L182.414 108.997ZM181.777 112.324L195.493 126.087L196.13 122.762L181.777 112.324ZM181.025 115.606L194.741 129.367L195.493 126.087L181.025 115.606ZM180.157 118.842L193.874 132.601L194.741 129.367L180.157 118.842ZM179.173 122.032L192.89 135.789L193.874 132.601L179.173 122.032ZM178.073 125.177L191.791 138.932L192.89 135.789L178.073 125.177ZM176.858 128.276L190.577 142.029L191.791 138.932L176.858 128.276ZM175.527 131.329L189.246 145.081L190.577 142.029L175.527 131.329ZM174.094 134.281L187.814 148.031L189.246 145.081L174.094 134.281ZM172.573 137.159L186.295 150.907L187.814 148.031L172.573 137.159ZM170.965 139.964L184.687 153.71L186.295 150.907L170.965 139.964ZM169.269 142.694L182.992 156.439L184.687 153.71L169.269 142.694ZM167.485 145.351L181.21 159.095L182.992 156.439L167.485 145.351ZM165.614 147.935L179.339 161.677L181.21 159.095L165.614 147.935ZM163.655 150.445L177.381 164.185L179.339 161.677L163.655 150.445ZM161.608 152.881L175.336 166.62L177.381 164.185L161.608 152.881ZM159.474 155.243L173.203 168.981L175.336 166.62L159.474 155.243ZM157.251 157.532L170.982 171.269L173.203 168.981L157.251 157.532ZM154.942 159.747L168.673 173.482L170.982 171.269L154.942 159.747ZM152.544 161.889L166.277 175.623L168.673 173.482L152.544 161.889ZM188.912 210.885L202.624 224.59L166.277 175.623L188.912 210.885ZM122.742 210.885L136.493 224.59H202.624L122.742 210.885ZM57.3303 97.5358L71.1187 111.307L70.9294 108.431L57.3303 97.5358ZM57.646 100.312L71.4342 114.082L71.1187 111.307L57.646 100.312ZM58.088 102.987L71.8759 116.755L71.4342 114.082L58.088 102.987ZM58.6562 105.56L72.4438 119.327L71.8759 116.755L58.6562 105.56ZM59.3507 108.031L73.1379 121.796L72.4438 119.327L59.3507 108.031ZM60.1715 110.4L73.9583 124.164L73.1379 121.796L60.1715 110.4ZM61.1186 112.668L74.9048 126.431L73.9583 124.164L61.1186 112.668ZM62.192 114.834L75.9776 128.596L74.9048 126.431L62.192 114.834ZM63.3916 116.898L77.1765 130.659L75.9776 128.596L63.3916 116.898ZM64.7176 118.861L78.5017 132.62L77.1765 130.659L64.7176 118.861ZM66.1698 120.722L79.953 134.48L78.5017 132.62L66.1698 120.722ZM67.7395 122.416L81.5218 136.173L79.953 134.48L67.7395 122.416ZM114.703 59.3157L128.458 73.1093L130.13 74.6921L114.703 59.3157ZM112.924 57.8827L126.68 71.6772L128.458 73.1093L112.924 57.8827ZM111.041 56.6007L124.798 70.3959L126.68 71.6772L111.041 56.6007ZM109.052 55.4694L122.81 69.2653L124.798 70.3959L109.052 55.4694ZM106.958 54.489L120.717 68.2855L122.81 69.2653L106.958 54.489ZM104.758 53.6594L118.519 67.4564L120.717 68.2855L104.758 53.6594ZM102.454 52.9807L116.216 66.778L118.519 67.4564L102.454 52.9807ZM100.044 52.4528L113.807 66.2504L116.216 66.778L100.044 52.4528ZM97.5288 52.0757L111.294 65.8735L113.807 66.2504L97.5288 52.0757ZM94.9086 51.8495L108.675 65.6474L111.294 65.8735L94.9086 51.8495ZM92.1831 51.774L105.951 65.572L108.675 65.6474L92.1831 51.774ZM89.4172 51.8495L103.187 65.6474L105.951 65.572L89.4172 51.8495ZM86.7601 52.0757L100.531 65.8735L103.187 65.6474L86.7601 52.0757ZM84.2118 52.4528L97.9845 66.2504L100.531 65.8735L84.2118 52.4528ZM81.7721 52.9807L95.5463 66.778L97.9845 66.2504L81.7721 52.9807ZM79.4412 53.6594L93.2168 67.4564L95.5463 66.778L79.4412 53.6594ZM77.2191 54.489L90.9959 68.2855L93.2168 67.4564L77.2191 54.489ZM75.1057 55.4694L88.8837 69.2653L90.9959 68.2855L75.1057 55.4694ZM73.101 56.6007L86.8802 70.3959L88.8837 69.2653L73.101 56.6007ZM71.2051 57.8827L84.9854 71.6772L86.8802 70.3959L71.2051 57.8827ZM69.4179 59.3157L83.1993 73.1093L84.9854 71.6772L69.4179 59.3157ZM67.7395 60.8994L81.5218 74.6921L83.1993 73.1093L67.7395 60.8994ZM66.1698 62.634L79.953 76.4257L81.5218 74.6921L66.1698 62.634ZM64.7176 64.4562L78.5017 78.2469L79.953 76.4257L64.7176 64.4562ZM63.3916 66.3872L77.1765 80.1767L78.5017 78.2469L63.3916 66.3872ZM62.192 68.427L75.9776 82.2153L77.1765 80.1767L62.192 68.427ZM61.1186 70.5755L74.9048 84.3625L75.9776 82.2153L61.1186 70.5755ZM60.1715 72.8327L73.9583 86.6185L74.9048 84.3625L60.1715 72.8327ZM59.3507 75.1986L73.1379 88.983L73.9583 86.6185L59.3507 75.1986ZM58.6562 77.6733L72.4438 91.4563L73.1379 88.983L58.6562 77.6733ZM58.088 80.2568L71.8759 94.0382L72.4438 91.4563L58.088 80.2568ZM57.646 82.949L71.4342 96.7288L71.8759 94.0382L57.646 82.949ZM57.3303 85.7499L71.1187 99.5281L71.4342 96.7288L57.3303 85.7499ZM57.1409 88.6596L70.9294 102.436L71.1187 99.5281L57.1409 88.6596ZM57.0777 91.6779L70.8663 105.453L70.9294 102.436L57.0777 91.6779ZM57.1409 94.6578L70.9294 108.431L70.8663 105.453L57.1409 94.6578ZM105.569 182.598L104.588 182.76L119.329 196.32L105.569 182.598ZM104.588 182.76L103.583 182.907L118.349 196.481L104.588 182.76ZM103.583 182.907L102.554 183.04L117.345 196.629L103.583 182.907ZM102.554 183.04L101.5 183.159L116.316 196.762L102.554 183.04ZM101.5 183.159L100.421 183.265L115.262 196.881L101.5 183.159ZM100.421 183.265L99.3178 183.356L114.184 196.986L100.421 183.265ZM99.3178 183.356L98.19 183.433L113.082 197.077L99.3178 183.356ZM98.19 183.433L97.0378 183.496L111.955 197.155L98.19 183.433ZM97.0378 183.496L95.8609 183.545L110.803 197.218L97.0378 183.496ZM95.8609 183.545L94.6595 183.58L109.627 197.267L95.8609 183.545ZM94.6595 183.58L93.4336 183.601L108.426 197.302L94.6595 183.58ZM93.4336 183.601L92.1831 183.608L107.201 197.323L93.4336 183.601ZM92.1831 183.608L88.0019 183.526L105.951 197.33L92.1831 183.608ZM88.0019 183.526L83.8768 183.279L101.772 197.247L88.0019 183.526ZM83.8768 183.279L79.8078 182.867L97.6497 197L83.8768 183.279ZM79.8078 182.867L75.795 182.29L93.5831 196.588L79.8078 182.867ZM75.795 182.29L71.8382 181.548L89.5726 196.012L75.795 182.29ZM71.8382 181.548L67.9377 180.641L85.6182 195.27L71.8382 181.548ZM67.9377 180.641L64.0932 179.569L81.7199 194.364L67.9377 180.641ZM64.0932 179.569L60.3048 178.333L77.8776 193.293L64.0932 179.569ZM60.3048 178.333L56.5726 176.931L74.0915 192.057L60.3048 178.333ZM56.5726 176.931L52.8965 175.365L70.3615 190.657L56.5726 176.931ZM52.8965 175.365L49.2766 173.634L66.6875 189.091L52.8965 175.365ZM49.2766 173.634L45.7127 171.738L63.0696 187.361L49.2766 173.634ZM45.7127 171.738L42.2786 169.697L59.5078 185.467L45.7127 171.738ZM42.2786 169.697L38.9638 167.529L56.0758 183.426L42.2786 169.697ZM38.9638 167.529L35.7683 165.235L52.7629 181.26L38.9638 167.529ZM35.7683 165.235L32.692 162.815L49.5692 178.967L35.7683 165.235ZM32.692 162.815L29.735 160.268L46.4947 176.548L32.692 162.815ZM29.735 160.268L26.8973 157.595L43.5394 174.003L29.735 160.268ZM157.153 25.8239L159.849 28.6038L170.884 39.637L157.153 25.8239ZM159.849 28.6038L162.422 31.5134L173.578 42.4152L159.849 28.6038ZM162.422 31.5134L164.872 34.5529L176.149 45.3232L162.422 31.5134ZM164.872 34.5529L167.199 37.7221L178.598 48.3609L164.872 34.5529ZM167.199 37.7221L169.404 41.0211L180.924 51.5283L167.199 37.7221ZM169.404 41.0211L171.486 44.4499L183.127 54.8254L169.404 41.0211ZM171.486 44.4499L173.462 47.9804L185.208 58.2522L171.486 44.4499ZM173.462 47.9804L175.267 51.5846L187.183 61.7807L173.462 47.9804ZM175.267 51.5846L176.9 55.2625L188.987 65.3827L175.267 51.5846ZM176.9 55.2625L178.361 59.014L190.619 69.0585L176.9 55.2625ZM178.361 59.014L179.65 62.8392L192.079 72.8078L178.361 59.014ZM179.65 62.8392L180.767 66.738L193.367 76.6307L179.65 62.8392ZM180.767 66.738L181.713 70.7105L194.484 80.5273L180.767 66.738ZM181.713 70.7105L182.486 74.7567L195.429 84.4975L181.713 70.7105ZM182.486 74.7567L183.088 78.8765L196.202 88.5413L182.486 74.7567ZM183.088 78.8765L183.517 83.07L196.803 92.6587L183.088 78.8765ZM183.517 83.07L183.775 87.3371L197.232 96.8498L183.517 83.07ZM183.775 87.3371L183.861 91.6779L197.49 101.114L183.775 87.3371ZM183.861 91.6779L183.803 95.233L197.576 105.453L183.861 91.6779ZM183.803 95.233L183.63 98.7425L197.518 109.006L183.803 95.233ZM183.63 98.7425L183.34 102.206L197.344 112.513L183.63 98.7425ZM183.34 102.206L182.935 105.625L197.055 115.975L183.34 102.206ZM182.935 105.625L182.414 108.997L196.65 119.391L182.935 105.625ZM182.414 108.997L181.777 112.324L196.13 122.762L182.414 108.997ZM181.777 112.324L181.025 115.606L195.493 126.087L181.777 112.324ZM181.025 115.606L180.157 118.842L194.741 129.367L181.025 115.606ZM180.157 118.842L179.173 122.032L193.874 132.601L180.157 118.842ZM179.173 122.032L178.073 125.177L192.89 135.789L179.173 122.032ZM178.073 125.177L176.858 128.276L191.791 138.932L178.073 125.177ZM176.858 128.276L175.527 131.329L190.577 142.029L176.858 128.276ZM175.527 131.329L174.094 134.281L189.246 145.081L175.527 131.329ZM174.094 134.281L172.573 137.159L187.814 148.031L174.094 134.281ZM172.573 137.159L170.965 139.964L186.295 150.907L172.573 137.159ZM170.965 139.964L169.269 142.694L184.687 153.71L170.965 139.964ZM169.269 142.694L167.485 145.351L182.992 156.439L169.269 142.694ZM167.485 145.351L165.614 147.935L181.21 159.095L167.485 145.351ZM165.614 147.935L163.655 150.445L179.339 161.677L165.614 147.935ZM163.655 150.445L161.608 152.881L177.381 164.185L163.655 150.445ZM161.608 152.881L159.474 155.243L175.336 166.62L161.608 152.881ZM159.474 155.243L157.251 157.532L173.203 168.981L159.474 155.243ZM157.251 157.532L154.942 159.747L170.982 171.269L157.251 157.532ZM154.942 159.747L152.544 161.889L168.673 173.482L154.942 159.747ZM152.544 161.889L188.912 210.885L166.277 175.623L152.544 161.889ZM188.912 210.885H122.742L202.624 224.59L188.912 210.885ZM57.1409 94.6578L57.3303 97.5358L70.9294 108.431L57.1409 94.6578ZM57.3303 97.5358L57.646 100.312L71.1187 111.307L57.3303 97.5358ZM57.646 100.312L58.088 102.987L71.4342 114.082L57.646 100.312ZM58.088 102.987L58.6562 105.56L71.8759 116.755L58.088 102.987ZM58.6562 105.56L59.3507 108.031L72.4438 119.327L58.6562 105.56ZM59.3507 108.031L60.1715 110.4L73.1379 121.796L59.3507 108.031ZM60.1715 110.4L61.1186 112.668L73.9583 124.164L60.1715 110.4ZM61.1186 112.668L62.192 114.834L74.9048 126.431L61.1186 112.668ZM62.192 114.834L63.3916 116.898L75.9776 128.596L62.192 114.834ZM63.3916 116.898L64.7176 118.861L77.1765 130.659L63.3916 116.898ZM64.7176 118.861L66.1698 120.722L78.5017 132.62L64.7176 118.861ZM66.1698 120.722L67.7395 122.416L79.953 134.48L66.1698 120.722ZM116.376 60.8994L114.703 59.3157L130.13 74.6921L116.376 60.8994ZM114.703 59.3157L112.924 57.8827L128.458 73.1093L114.703 59.3157ZM112.924 57.8827L111.041 56.6007L126.68 71.6772L112.924 57.8827ZM111.041 56.6007L109.052 55.4694L124.798 70.3959L111.041 56.6007ZM109.052 55.4694L106.958 54.489L122.81 69.2653L109.052 55.4694ZM106.958 54.489L104.758 53.6594L120.717 68.2855L106.958 54.489ZM104.758 53.6594L102.454 52.9807L118.519 67.4564L104.758 53.6594ZM102.454 52.9807L100.044 52.4528L116.216 66.778L102.454 52.9807ZM100.044 52.4528L97.5288 52.0757L113.807 66.2504L100.044 52.4528ZM97.5288 52.0757L94.9086 51.8495L111.294 65.8735L97.5288 52.0757ZM94.9086 51.8495L92.1831 51.774L108.675 65.6474L94.9086 51.8495ZM92.1831 51.774L89.4172 51.8495L105.951 65.572L92.1831 51.774ZM89.4172 51.8495L86.7601 52.0757L103.187 65.6474L89.4172 51.8495ZM86.7601 52.0757L84.2118 52.4528L100.531 65.8735L86.7601 52.0757ZM84.2118 52.4528L81.7721 52.9807L97.9845 66.2504L84.2118 52.4528ZM81.7721 52.9807L79.4412 53.6594L95.5463 66.778L81.7721 52.9807ZM79.4412 53.6594L77.2191 54.489L93.2168 67.4564L79.4412 53.6594ZM77.2191 54.489L75.1057 55.4694L90.9959 68.2855L77.2191 54.489ZM75.1057 55.4694L73.101 56.6007L88.8837 69.2653L75.1057 55.4694ZM73.101 56.6007L71.2051 57.8827L86.8802 70.3959L73.101 56.6007ZM71.2051 57.8827L69.4179 59.3157L84.9854 71.6772L71.2051 57.8827ZM69.4179 59.3157L67.7395 60.8994L83.1993 73.1093L69.4179 59.3157ZM67.7395 60.8994L66.1698 62.634L81.5218 74.6921L67.7395 60.8994ZM66.1698 62.634L64.7176 64.4562L79.953 76.4257L66.1698 62.634ZM64.7176 64.4562L63.3916 66.3872L78.5017 78.2469L64.7176 64.4562ZM63.3916 66.3872L62.192 68.427L77.1765 80.1767L63.3916 66.3872ZM62.192 68.427L61.1186 70.5755L75.9776 82.2153L62.192 68.427ZM61.1186 70.5755L60.1715 72.8327L74.9048 84.3625L61.1186 70.5755ZM60.1715 72.8327L59.3507 75.1986L73.9583 86.6185L60.1715 72.8327ZM59.3507 75.1986L58.6562 77.6733L73.1379 88.983L59.3507 75.1986ZM58.6562 77.6733L58.088 80.2568L72.4438 91.4563L58.6562 77.6733ZM58.088 80.2568L57.646 82.949L71.8759 94.0382L58.088 80.2568ZM57.646 82.949L57.3303 85.7499L71.4342 96.7288L57.646 82.949ZM57.3303 85.7499L57.1409 88.6596L71.1187 99.5281L57.3303 85.7499ZM57.1409 88.6596L57.0777 91.6779L70.9294 102.436L57.1409 88.6596ZM57.0777 91.6779L57.1409 94.6578L70.8663 105.453L57.0777 91.6779ZM103.583 182.907L104.588 182.76L105.569 182.598L103.583 182.907ZM101.5 183.159L102.554 183.04L103.583 182.907L101.5 183.159ZM99.3178 183.356L100.421 183.265L101.5 183.159L99.3178 183.356ZM97.0378 183.496L98.19 183.433L99.3178 183.356L97.0378 183.496ZM94.6595 183.58L95.8609 183.545L97.0378 183.496L94.6595 183.58ZM92.1831 183.608L93.4336 183.601L94.6595 183.58L92.1831 183.608ZM83.8768 183.279L88.0019 183.526L92.1831 183.608L83.8768 183.279ZM75.795 182.29L79.8078 182.867L83.8768 183.279L75.795 182.29ZM67.9377 180.641L71.8382 181.548L75.795 182.29L67.9377 180.641ZM60.3048 178.333L64.0932 179.569L67.9377 180.641L60.3048 178.333ZM52.8965 175.365L56.5726 176.931L60.3048 178.333L52.8965 175.365ZM45.7127 171.738L49.2766 173.634L52.8965 175.365L45.7127 171.738ZM38.9638 167.529L42.2786 169.697L45.7127 171.738L38.9638 167.529ZM32.692 162.815L35.7683 165.235L38.9638 167.529L32.692 162.815ZM26.8973 157.595L29.735 160.268L32.692 162.815L26.8973 157.595ZM21.5795 151.871L24.1788 154.796L26.8973 157.595L21.5795 151.871ZM16.7389 145.641L19.0996 148.819L21.5795 151.871L16.7389 145.641ZM12.3753 138.906L14.4974 142.337L16.7389 145.641L12.3753 138.906ZM8.59393 131.771L10.3987 135.375L12.3753 138.906L8.59393 131.771ZM5.50012 124.342L6.96108 128.093L8.59393 131.771L5.50012 124.342ZM3.09381 116.618L4.21102 120.517L5.50012 124.342L3.09381 116.618ZM1.37503 108.599L2.14848 112.645L3.09381 116.618L1.37503 108.599ZM0.343752 100.286L0.77345 104.479L1.37503 108.599L0.343752 100.286ZM0 91.6779L0.0859356 96.0188L0.343752 100.286L0 91.6779ZM57.1409 94.6578L57.0777 91.6779H0L57.1409 94.6578ZM0 91.6779H57.0777L57.1409 88.6596L0 91.6779ZM0.343752 83.07L0.0859356 87.3371L0 91.6779L0.343752 83.07ZM1.37503 74.7567L0.77345 78.8765L0.343752 83.07L1.37503 74.7567ZM3.09381 66.738L2.14848 70.7105L1.37503 74.7567L3.09381 66.738ZM5.50012 59.014L4.21102 62.8392L3.09381 66.738L5.50012 59.014ZM8.59393 51.5846L6.96108 55.2625L5.50012 59.014L8.59393 51.5846ZM12.3753 44.4499L10.3987 47.9804L8.59393 51.5846L12.3753 44.4499ZM16.7389 37.7221L14.4974 41.0211L12.3753 44.4499L16.7389 37.7221ZM21.5795 31.5134L19.0996 34.5529L16.7389 37.7221L21.5795 31.5134ZM26.8973 25.8239L24.1788 28.6038L21.5795 31.5134L26.8973 25.8239ZM32.692 20.6535L29.735 23.1738L26.8973 25.8239L32.692 20.6535ZM38.9638 16.0022L35.7683 18.263L32.692 20.6535L38.9638 16.0022ZM45.7127 11.8701L42.2786 13.8713L38.9638 16.0022L45.7127 11.8701ZM52.8965 8.24315L49.2766 9.97422L45.7127 11.8701L52.8965 8.24315ZM60.3048 5.27562L56.5726 6.67695L52.8965 8.24315L60.3048 5.27562ZM67.9377 2.96753L64.0932 4.03914L60.3048 5.27562L67.9377 2.96753ZM75.795 1.31891L71.8382 2.06079L67.9377 2.96753L75.795 1.31891ZM83.8768 0.329722L79.8078 0.741888L75.795 1.31891L83.8768 0.329722ZM92.1831 0L88.0019 0.0824331L83.8768 0.329722L92.1831 0ZM100.482 0.329722L96.3625 0.0824331L92.1831 0L100.482 0.329722ZM108.543 1.31891L104.543 0.741888L100.482 0.329722L108.543 1.31891ZM116.365 2.96753L112.484 2.06079L108.543 1.31891L116.365 2.96753ZM123.949 5.27562L120.187 4.03914L116.365 2.96753L123.949 5.27562ZM131.294 8.24315L127.651 6.67695L123.949 5.27562L131.294 8.24315ZM138.401 11.8701L134.877 9.97422L131.294 8.24315L138.401 11.8701ZM145.143 16.0022L141.833 13.8713L138.401 11.8701L145.143 16.0022ZM151.393 20.6535L148.329 18.263L145.143 16.0022L151.393 20.6535ZM157.153 25.8239L154.335 23.1738L151.393 20.6535L157.153 25.8239ZM162.422 31.5134L159.849 28.6038L157.153 25.8239L162.422 31.5134ZM167.199 37.7221L164.872 34.5529L162.422 31.5134L167.199 37.7221ZM171.486 44.4499L169.404 41.0211L167.199 37.7221L171.486 44.4499ZM175.267 51.5846L173.462 47.9804L171.486 44.4499L175.267 51.5846ZM178.361 59.014L176.9 55.2625L175.267 51.5846L178.361 59.014ZM180.767 66.738L179.65 62.8392L178.361 59.014L180.767 66.738ZM182.486 74.7567L181.713 70.7105L180.767 66.738L182.486 74.7567ZM183.517 83.07L183.088 78.8765L182.486 74.7567L183.517 83.07ZM183.861 91.6779L183.775 87.3371L183.517 83.07L183.861 91.6779ZM183.63 98.7425L183.803 95.233L183.861 91.6779L183.63 98.7425ZM182.935 105.625L183.34 102.206L183.63 98.7425L182.935 105.625ZM181.777 112.324L182.414 108.997L182.935 105.625L181.777 112.324ZM180.157 118.842L181.025 115.606L181.777 112.324L180.157 118.842ZM178.073 125.177L179.173 122.032L180.157 118.842L178.073 125.177ZM175.527 131.329L176.858 128.276L178.073 125.177L175.527 131.329ZM172.573 137.159L174.094 134.281L175.527 131.329L172.573 137.159ZM169.269 142.694L170.965 139.964L172.573 137.159L169.269 142.694ZM165.614 147.935L167.485 145.351L169.269 142.694L165.614 147.935ZM161.608 152.881L163.655 150.445L165.614 147.935L161.608 152.881ZM157.251 157.532L159.474 155.243L161.608 152.881L157.251 157.532ZM152.544 161.889L154.942 159.747L157.251 157.532L152.544 161.889ZM122.742 210.885H188.912L152.544 161.889L122.742 210.885ZM101.5 183.159L103.583 182.907L105.569 182.598L101.5 183.159ZM97.0378 183.496L99.3178 183.356L101.5 183.159L97.0378 183.496ZM92.1831 183.608L94.6595 183.58L97.0378 183.496L92.1831 183.608ZM75.795 182.29L83.8768 183.279L92.1831 183.608L75.795 182.29ZM60.3048 178.333L67.9377 180.641L75.795 182.29L60.3048 178.333ZM45.7127 171.738L52.8965 175.365L60.3048 178.333L45.7127 171.738ZM32.692 162.815L38.9638 167.529L45.7127 171.738L32.692 162.815ZM21.5795 151.871L26.8973 157.595L32.692 162.815L21.5795 151.871ZM12.3753 138.906L16.7389 145.641L21.5795 151.871L12.3753 138.906ZM5.50012 124.342L8.59393 131.771L12.3753 138.906L5.50012 124.342ZM1.37503 108.599L3.09381 116.618L5.50012 124.342L1.37503 108.599ZM0 91.6779L0.343752 100.286L1.37503 108.599L0 91.6779ZM57.3303 97.5358L57.1409 94.6578L0 91.6779L57.3303 97.5358ZM0 91.6779L57.1409 88.6596L57.3303 85.7499L0 91.6779ZM1.37503 74.7567L0.343752 83.07L0 91.6779L1.37503 74.7567ZM5.50012 59.014L3.09381 66.738L1.37503 74.7567L5.50012 59.014ZM12.3753 44.4499L8.59393 51.5846L5.50012 59.014L12.3753 44.4499ZM21.5795 31.5134L16.7389 37.7221L12.3753 44.4499L21.5795 31.5134ZM32.692 20.6535L26.8973 25.8239L21.5795 31.5134L32.692 20.6535ZM45.7127 11.8701L38.9638 16.0022L32.692 20.6535L45.7127 11.8701ZM60.3048 5.27562L52.8965 8.24315L45.7127 11.8701L60.3048 5.27562ZM75.795 1.31891L67.9377 2.96753L60.3048 5.27562L75.795 1.31891ZM92.1831 0L83.8768 0.329722L75.795 1.31891L92.1831 0ZM108.543 1.31891L100.482 0.329722L92.1831 0L108.543 1.31891ZM123.949 5.27562L116.365 2.96753L108.543 1.31891L123.949 5.27562ZM138.401 11.8701L131.294 8.24315L123.949 5.27562L138.401 11.8701ZM151.393 20.6535L145.143 16.0022L138.401 11.8701L151.393 20.6535ZM162.422 31.5134L157.153 25.8239L151.393 20.6535L162.422 31.5134ZM171.486 44.4499L167.199 37.7221L162.422 31.5134L171.486 44.4499ZM178.361 59.014L175.267 51.5846L171.486 44.4499L178.361 59.014ZM182.486 74.7567L180.767 66.738L178.361 59.014L182.486 74.7567ZM183.861 91.6779L183.517 83.07L182.486 74.7567L183.861 91.6779ZM182.935 105.625L183.63 98.7425L183.861 91.6779L182.935 105.625ZM180.157 118.842L181.777 112.324L182.935 105.625L180.157 118.842ZM175.527 131.329L178.073 125.177L180.157 118.842L175.527 131.329ZM169.269 142.694L172.573 137.159L175.527 131.329L169.269 142.694ZM161.608 152.881L165.614 147.935L169.269 142.694L161.608 152.881ZM152.544 161.889L157.251 157.532L161.608 152.881L152.544 161.889ZM105.569 182.598L122.742 210.885L152.544 161.889L105.569 182.598ZM97.0378 183.496L101.5 183.159L105.569 182.598L97.0378 183.496ZM75.795 182.29L92.1831 183.608L97.0378 183.496L75.795 182.29ZM45.7127 171.738L60.3048 178.333L75.795 182.29L45.7127 171.738ZM21.5795 151.871L32.692 162.815L45.7127 171.738L21.5795 151.871ZM5.50012 124.342L12.3753 138.906L21.5795 151.871L5.50012 124.342ZM0 91.6779L1.37503 108.599L5.50012 124.342L0 91.6779ZM57.646 100.312L57.3303 97.5358L0 91.6779L57.646 100.312ZM0 91.6779L57.3303 85.7499L57.646 82.949L0 91.6779ZM5.50012 59.014L1.37503 74.7567L0 91.6779L5.50012 59.014ZM21.5795 31.5134L12.3753 44.4499L5.50012 59.014L21.5795 31.5134ZM45.7127 11.8701L32.692 20.6535L21.5795 31.5134L45.7127 11.8701ZM75.795 1.31891L60.3048 5.27562L45.7127 11.8701L75.795 1.31891ZM108.543 1.31891L92.1831 0L75.795 1.31891H108.543ZM138.401 11.8701L123.949 5.27562L108.543 1.31891L138.401 11.8701ZM162.422 31.5134L151.393 20.6535L138.401 11.8701L162.422 31.5134ZM178.361 59.014L171.486 44.4499L162.422 31.5134L178.361 59.014ZM183.861 91.6779L182.486 74.7567L178.361 59.014L183.861 91.6779ZM180.157 118.842L182.935 105.625L183.861 91.6779L180.157 118.842ZM169.269 142.694L175.527 131.329L180.157 118.842L169.269 142.694ZM152.544 161.889L161.608 152.881L169.269 142.694L152.544 161.889ZM97.0378 183.496L105.569 182.598L152.544 161.889L97.0378 183.496ZM45.7127 171.738L75.795 182.29L97.0378 183.496L45.7127 171.738ZM5.50012 124.342L21.5795 151.871L45.7127 171.738L5.50012 124.342ZM57.646 100.312L0 91.6779L5.50012 124.342L57.646 100.312ZM0 91.6779L57.646 82.949L58.088 80.2568L0 91.6779ZM21.5795 31.5134L5.50012 59.014L0 91.6779L21.5795 31.5134ZM75.795 1.31891L45.7127 11.8701L21.5795 31.5134L75.795 1.31891ZM138.401 11.8701L108.543 1.31891H75.795L138.401 11.8701ZM178.361 59.014L162.422 31.5134L138.401 11.8701L178.361 59.014ZM180.157 118.842L183.861 91.6779L178.361 59.014L180.157 118.842ZM152.544 161.889L169.269 142.694L180.157 118.842L152.544 161.889ZM45.7127 171.738L97.0378 183.496L152.544 161.889L45.7127 171.738ZM57.646 100.312L5.50012 124.342L45.7127 171.738L57.646 100.312ZM0 91.6779L58.088 80.2568L58.6562 77.6733L0 91.6779ZM75.795 1.31891L21.5795 31.5134L0 91.6779L75.795 1.31891ZM178.361 59.014L138.401 11.8701L75.795 1.31891L178.361 59.014ZM152.544 161.889L180.157 118.842L178.361 59.014L152.544 161.889ZM58.088 102.987L57.646 100.312L45.7127 171.738L58.088 102.987ZM0 91.6779L58.6562 77.6733L59.3507 75.1986L0 91.6779ZM58.6562 105.56L58.088 102.987L45.7127 171.738L58.6562 105.56ZM0 91.6779L59.3507 75.1986L60.1715 72.8327L0 91.6779ZM59.3507 108.031L58.6562 105.56L45.7127 171.738L59.3507 108.031ZM0 91.6779L60.1715 72.8327L61.1186 70.5755L0 91.6779ZM60.1715 110.4L59.3507 108.031L45.7127 171.738L60.1715 110.4ZM0 91.6779L61.1186 70.5755L62.192 68.427L0 91.6779ZM61.1186 112.668L60.1715 110.4L45.7127 171.738L61.1186 112.668ZM0 91.6779L62.192 68.427L63.3916 66.3872L0 91.6779ZM62.192 114.834L61.1186 112.668L45.7127 171.738L62.192 114.834ZM0 91.6779L63.3916 66.3872L64.7176 64.4562L0 91.6779ZM63.3916 116.898L62.192 114.834L45.7127 171.738L63.3916 116.898ZM0 91.6779L64.7176 64.4562L66.1698 62.634L0 91.6779ZM64.7176 118.861L63.3916 116.898L45.7127 171.738L64.7176 118.861ZM0 91.6779L66.1698 62.634L67.7395 60.8994L0 91.6779ZM66.1698 120.722L64.7176 118.861L45.7127 171.738L66.1698 120.722ZM0 91.6779L67.7395 60.8994L69.4179 59.3157L0 91.6779ZM67.7395 122.416L66.1698 120.722L45.7127 171.738L67.7395 122.416ZM0 91.6779L69.4179 59.3157L71.2051 57.8827L0 91.6779ZM69.4179 123.963L67.7395 122.416L45.7127 171.738L69.4179 123.963ZM0 91.6779L71.2051 57.8827L73.101 56.6007L0 91.6779ZM71.2051 125.363L69.4179 123.963L45.7127 171.738L71.2051 125.363ZM0 91.6779L73.101 56.6007L75.1057 55.4694L0 91.6779ZM73.101 126.615L71.2051 125.363L45.7127 171.738L73.101 126.615ZM75.795 1.31891L0 91.6779L75.1057 55.4694L75.795 1.31891ZM75.1057 127.72L73.101 126.615L45.7127 171.738L75.1057 127.72ZM75.795 1.31891L75.1057 55.4694L77.2191 54.489L75.795 1.31891ZM77.2191 128.677L75.1057 127.72L45.7127 171.738L77.2191 128.677ZM75.795 1.31891L77.2191 54.489L79.4412 53.6594L75.795 1.31891ZM77.2191 128.677L45.7127 171.738L152.544 161.889L77.2191 128.677ZM75.795 1.31891L79.4412 53.6594L81.7721 52.9807L75.795 1.31891ZM79.4412 129.488L77.2191 128.677L152.544 161.889L79.4412 129.488ZM75.795 1.31891L81.7721 52.9807L84.2118 52.4528L75.795 1.31891ZM81.7721 130.151L79.4412 129.488L152.544 161.889L81.7721 130.151ZM75.795 1.31891L84.2118 52.4528L86.7601 52.0757L75.795 1.31891ZM84.2118 130.666L81.7721 130.151L152.544 161.889L84.2118 130.666ZM75.795 1.31891L86.7601 52.0757L89.4172 51.8495L75.795 1.31891ZM86.7601 131.035L84.2118 130.666L152.544 161.889L86.7601 131.035ZM75.795 1.31891L89.4172 51.8495L92.1831 51.774L75.795 1.31891ZM89.4172 131.256L86.7601 131.035L152.544 161.889L89.4172 131.256ZM75.795 1.31891L92.1831 51.774L94.9086 51.8495L75.795 1.31891ZM92.1831 131.329L89.4172 131.256L152.544 161.889L92.1831 131.329ZM75.795 1.31891L94.9086 51.8495L97.5288 52.0757L75.795 1.31891ZM94.9086 131.256L92.1831 131.329L152.544 161.889L94.9086 131.256ZM75.795 1.31891L97.5288 52.0757L100.044 52.4528L75.795 1.31891ZM97.5288 131.035L94.9086 131.256L152.544 161.889L97.5288 131.035ZM75.795 1.31891L100.044 52.4528L102.454 52.9807L75.795 1.31891ZM100.044 130.666L97.5288 131.035L152.544 161.889L100.044 130.666ZM75.795 1.31891L102.454 52.9807L104.758 53.6594L75.795 1.31891ZM102.454 130.151L100.044 130.666L152.544 161.889L102.454 130.151ZM75.795 1.31891L104.758 53.6594L106.958 54.489L75.795 1.31891ZM104.758 129.488L102.454 130.151L152.544 161.889L104.758 129.488ZM75.795 1.31891L106.958 54.489L109.052 55.4694L75.795 1.31891ZM106.958 128.677L104.758 129.488L152.544 161.889L106.958 128.677ZM75.795 1.31891L109.052 55.4694L111.041 56.6007L75.795 1.31891ZM109.052 127.72L106.958 128.677L152.544 161.889L109.052 127.72ZM75.795 1.31891L111.041 56.6007L112.924 57.8827L75.795 1.31891ZM111.041 126.615L109.052 127.72L152.544 161.889L111.041 126.615ZM75.795 1.31891L112.924 57.8827L114.703 59.3157L75.795 1.31891ZM112.924 125.363L111.041 126.615L152.544 161.889L112.924 125.363ZM75.795 1.31891L114.703 59.3157L116.376 60.8994L75.795 1.31891ZM114.703 123.963L112.924 125.363L152.544 161.889L114.703 123.963ZM75.795 1.31891L116.376 60.8994L117.944 62.634L75.795 1.31891ZM116.376 122.416L114.703 123.963L152.544 161.889L116.376 122.416ZM75.795 1.31891L117.944 62.634L119.396 64.4562L75.795 1.31891ZM116.376 122.416L152.544 161.889L178.361 59.014L116.376 122.416ZM178.361 59.014L75.795 1.31891L119.396 64.4562L178.361 59.014ZM117.944 120.722L116.376 122.416L178.361 59.014L117.944 120.722ZM178.361 59.014L119.396 64.4562L120.722 66.3872L178.361 59.014ZM119.396 118.861L117.944 120.722L178.361 59.014L119.396 118.861ZM178.361 59.014L120.722 66.3872L121.922 68.427L178.361 59.014ZM120.722 116.898L119.396 118.861L178.361 59.014L120.722 116.898ZM178.361 59.014L121.922 68.427L122.995 70.5755L178.361 59.014ZM121.922 114.834L120.722 116.898L178.361 59.014L121.922 114.834ZM178.361 59.014L122.995 70.5755L123.942 72.8327L178.361 59.014ZM122.995 112.668L121.922 114.834L178.361 59.014L122.995 112.668ZM178.361 59.014L123.942 72.8327L124.763 75.1986L178.361 59.014ZM123.942 110.4L122.995 112.668L178.361 59.014L123.942 110.4ZM178.361 59.014L124.763 75.1986L125.457 77.6733L178.361 59.014ZM124.763 108.031L123.942 110.4L178.361 59.014L124.763 108.031ZM178.361 59.014L125.457 77.6733L126.026 80.2568L178.361 59.014ZM125.457 105.56L124.763 108.031L178.361 59.014L125.457 105.56ZM178.361 59.014L126.026 80.2568L126.468 82.949L178.361 59.014ZM126.026 102.987L125.457 105.56L178.361 59.014L126.026 102.987ZM178.361 59.014L126.468 82.949L126.783 85.7499L178.361 59.014ZM126.468 100.312L126.026 102.987L178.361 59.014L126.468 100.312ZM178.361 59.014L126.783 85.7499L126.973 88.6596L178.361 59.014ZM126.783 97.5358L126.468 100.312L178.361 59.014L126.783 97.5358ZM178.361 59.014L126.973 88.6596L127.036 91.6779L178.361 59.014ZM126.973 94.6578L126.783 97.5358L178.361 59.014L126.973 94.6578ZM178.361 59.014L127.036 91.6779L126.973 94.6578L178.361 59.014Z" fill="url(#paint0_linear_45_146)"/>
<path d="M137.343 210.885C128.278 210.885 119.87 206.153 115.165 198.404L112.544 194.086C108.336 187.157 100.29 183.608 92.1831 183.608C75.346 183.608 59.8559 179.652 45.7127 171.738C31.7379 163.825 20.6254 152.881 12.3753 138.906C4.12509 124.931 0 109.189 0 91.6779C0 74.1674 4.12509 58.4247 12.3753 44.4499C20.6254 30.4751 31.7379 19.6152 45.7127 11.8701C59.8559 3.95672 75.346 0 92.1831 0C109.02 0 124.426 3.95672 138.401 11.8701C152.376 19.6152 163.404 30.4751 171.486 44.4499C179.736 58.4247 183.861 74.1674 183.861 91.6779C183.861 105.989 181.083 119.207 175.527 131.329C172.79 137.216 169.544 142.674 165.787 147.704C159.227 156.485 157.6 168.701 164.133 177.502C174.378 191.303 164.526 210.885 147.338 210.885H137.343ZM57.0777 91.6779C57.0777 103.801 60.1084 113.482 66.1698 120.722C72.2311 127.794 80.9022 131.329 92.1831 131.329C103.296 131.329 111.882 127.794 117.944 120.722C124.005 113.482 127.036 103.801 127.036 91.6779C127.036 79.3869 124.005 69.7056 117.944 62.634C111.882 55.394 103.296 51.774 92.1831 51.774C80.9022 51.774 72.2311 55.394 66.1698 62.634C60.1084 69.7056 57.0777 79.3869 57.0777 91.6779Z" fill="url(#paint1_linear_45_146)"/>
</g>
<defs>
<filter id="filter0_b_45_146" x="-4" y="-4" width="1034.71" height="259.953" filterUnits="userSpaceOnUse" color-interpolation-filters="sRGB">
<feFlood flood-opacity="0" result="BackgroundImageFix"/>
<feGaussianBlur in="BackgroundImageFix" stdDeviation="2"/>
<feComposite in2="SourceAlpha" operator="in" result="effect1_backgroundBlur_45_146"/>
<feBlend mode="normal" in="SourceGraphic" in2="effect1_backgroundBlur_45_146" result="shape"/>
</filter>
<linearGradient id="paint0_linear_45_146" x1="115" y1="0" x2="115" y2="251.953" gradientUnits="userSpaceOnUse">
<stop offset="0.177083" stop-color="#FAFF00"/>
<stop offset="0.369792" stop-color="#97ED63"/>
<stop offset="0.578125" stop-color="#00FFE0"/>
<stop offset="0.760417" stop-color="#00E0FF"/>
<stop offset="1" stop-color="#0085FF"/>
</linearGradient>
<linearGradient id="paint1_linear_45_146" x1="94.4561" y1="0" x2="94.4561" y2="210.885" gradientUnits="userSpaceOnUse">
<stop stop-color="#FF004D"/>
<stop offset="0.322917" stop-color="#FF007A"/>
<stop offset="0.552083" stop-color="#FF00B8"/>
<stop offset="0.677083" stop-color="#FD00DB"/>
<stop offset="0.807292" stop-color="#FF00F5"/>
<stop offset="1" stop-color="#8F00FF"/>
</linearGradient>
</defs>
</svg>
